<svg id="svg" version="1.1" xmlns="http://www.w3.org/2000/svg" xmlns:xlink="http://www.w3.org/1999/xlink" width="400" height="164.06249999999997" viewBox="0, 0, 400,164.06249999999997"><g id="svgg"><path id="path0" d="M76.542 0.122 C 76.152 0.157,75.833 0.257,75.833 0.343 C 75.833 0.429,75.533 0.500,75.167 0.500 C 74.800 0.500,74.500 0.575,74.500 0.667 C 74.500 0.758,74.313 0.833,74.083 0.833 C 73.854 0.833,73.667 0.908,73.667 1.000 C 73.667 1.092,73.498 1.166,73.292 1.166 C 72.846 1.165,71.274 1.696,71.194 1.875 C 71.164 1.944,70.995 2.000,70.819 2.000 C 70.644 2.000,70.500 2.075,70.500 2.167 C 70.500 2.258,70.350 2.333,70.167 2.333 C 69.983 2.333,69.833 2.408,69.833 2.500 C 69.833 2.592,69.683 2.667,69.500 2.667 C 69.317 2.667,69.167 2.742,69.167 2.833 C 69.167 2.925,69.054 3.000,68.917 3.000 C 68.779 3.000,68.667 3.075,68.667 3.167 C 68.667 3.258,68.523 3.333,68.347 3.333 C 68.172 3.333,68.003 3.390,67.972 3.458 C 67.942 3.527,67.617 3.732,67.250 3.914 C 66.883 4.096,66.462 4.378,66.314 4.539 C 66.166 4.701,65.938 4.833,65.809 4.833 C 65.679 4.833,65.465 4.983,65.333 5.167 C 65.201 5.350,64.997 5.500,64.880 5.500 C 64.763 5.500,64.667 5.575,64.667 5.667 C 64.667 5.758,64.582 5.833,64.478 5.833 C 64.374 5.833,64.053 6.077,63.764 6.375 C 63.475 6.673,62.979 7.099,62.661 7.323 C 62.343 7.546,61.983 7.868,61.861 8.038 C 61.739 8.207,61.458 8.527,61.236 8.749 C 61.015 8.970,60.833 9.194,60.833 9.247 C 60.833 9.299,60.515 9.675,60.125 10.081 C 59.229 11.016,58.667 11.751,58.667 11.985 C 58.667 12.085,58.592 12.167,58.500 12.167 C 58.408 12.167,58.333 12.245,58.333 12.340 C 58.333 12.436,58.183 12.675,58.000 12.872 C 57.817 13.069,57.667 13.328,57.667 13.448 C 57.667 13.568,57.592 13.667,57.500 13.667 C 57.408 13.667,57.333 13.779,57.333 13.917 C 57.333 14.054,57.277 14.168,57.208 14.169 C 57.140 14.171,56.858 14.640,56.583 15.211 C 56.308 15.782,56.027 16.275,55.958 16.306 C 55.890 16.336,55.833 16.505,55.833 16.681 C 55.833 16.856,55.758 17.000,55.667 17.000 C 55.575 17.000,55.500 17.146,55.500 17.323 C 55.500 17.501,55.425 17.693,55.333 17.750 C 55.242 17.807,55.167 18.036,55.167 18.260 C 55.167 18.484,55.092 18.667,55.000 18.667 C 54.908 18.667,54.833 18.854,54.833 19.083 C 54.833 19.313,54.775 19.500,54.703 19.500 C 54.631 19.500,54.476 19.856,54.359 20.292 C 54.241 20.727,54.078 21.208,53.997 21.359 C 53.916 21.511,53.798 22.205,53.735 22.901 C 53.672 23.597,53.556 24.167,53.477 24.167 C 53.398 24.167,53.333 24.864,53.333 25.717 C 53.333 26.615,53.257 27.343,53.151 27.449 C 53.020 27.580,53.020 27.725,53.151 27.971 C 53.251 28.158,53.333 28.879,53.333 29.572 L 53.333 30.833 55.407 30.833 C 56.609 30.833,57.524 30.763,57.583 30.667 C 57.640 30.575,58.094 30.500,58.593 30.500 C 59.092 30.500,59.500 30.425,59.500 30.333 C 59.500 30.242,59.758 30.167,60.073 30.167 C 60.389 30.167,60.693 30.092,60.750 30.000 C 60.807 29.908,61.036 29.833,61.260 29.833 C 61.484 29.833,61.667 29.758,61.667 29.667 C 61.667 29.575,61.850 29.500,62.073 29.500 C 62.297 29.500,62.527 29.425,62.583 29.333 C 62.640 29.242,62.832 29.167,63.010 29.167 C 63.188 29.167,63.333 29.092,63.333 29.000 C 63.333 28.908,63.446 28.833,63.583 28.833 C 63.721 28.833,63.833 28.765,63.833 28.681 C 63.833 28.598,64.133 28.479,64.500 28.417 C 64.867 28.355,65.167 28.236,65.167 28.152 C 65.167 28.068,65.317 28.000,65.500 28.000 C 65.683 28.000,65.833 27.925,65.833 27.833 C 65.833 27.742,65.946 27.667,66.083 27.667 C 66.221 27.667,66.333 27.592,66.333 27.500 C 66.333 27.408,66.467 27.333,66.630 27.333 C 66.793 27.333,67.035 27.183,67.167 27.000 C 67.299 26.817,67.484 26.667,67.578 26.666 C 67.673 26.666,67.968 26.479,68.234 26.250 C 68.501 26.021,68.767 25.833,68.827 25.833 C 68.886 25.833,69.231 25.573,69.592 25.254 C 69.954 24.935,70.572 24.391,70.965 24.045 C 72.354 22.825,72.932 22.244,73.329 21.667 C 73.549 21.346,73.903 20.904,74.115 20.686 C 74.327 20.467,74.500 20.202,74.500 20.097 C 74.500 19.993,74.650 19.799,74.833 19.667 C 75.017 19.535,75.167 19.310,75.167 19.167 C 75.167 19.024,75.317 18.799,75.500 18.667 C 75.683 18.535,75.833 18.340,75.833 18.234 C 75.833 18.128,75.946 17.947,76.083 17.833 C 76.221 17.719,76.333 17.485,76.333 17.313 C 76.333 17.141,76.408 17.000,76.500 17.000 C 76.592 17.000,76.667 16.850,76.667 16.667 C 76.667 16.483,76.742 16.333,76.833 16.333 C 76.925 16.333,77.000 16.221,77.000 16.083 C 77.000 15.946,77.075 15.833,77.167 15.833 C 77.258 15.833,77.333 15.683,77.333 15.500 C 77.333 15.317,77.408 15.167,77.500 15.167 C 77.592 15.167,77.667 15.017,77.667 14.833 C 77.667 14.650,77.742 14.500,77.833 14.500 C 77.925 14.500,78.000 14.356,78.000 14.181 C 78.000 14.005,78.056 13.836,78.125 13.806 C 78.304 13.726,78.835 12.154,78.834 11.708 C 78.834 11.502,78.908 11.333,79.000 11.333 C 79.092 11.333,79.167 11.146,79.167 10.917 C 79.167 10.688,79.242 10.500,79.333 10.500 C 79.425 10.500,79.500 10.200,79.500 9.833 C 79.500 9.467,79.575 9.167,79.667 9.167 C 79.758 9.167,79.833 8.909,79.833 8.593 C 79.833 8.278,79.908 7.973,80.000 7.917 C 80.092 7.860,80.167 7.406,80.167 6.907 C 80.167 6.408,80.242 6.000,80.333 6.000 C 80.438 6.000,80.500 4.889,80.500 3.000 L 80.500 0.000 78.875 0.029 C 77.981 0.045,76.931 0.087,76.542 0.122 M142.446 8.943 C 142.384 9.005,142.333 36.569,142.333 70.196 L 142.333 131.336 152.125 131.293 L 161.917 131.250 161.959 110.375 L 162.001 89.500 177.574 89.500 C 187.776 89.500,193.183 89.443,193.250 89.333 C 193.307 89.242,193.869 89.167,194.500 89.167 C 195.131 89.167,195.693 89.092,195.750 89.000 C 195.807 88.908,196.186 88.833,196.593 88.833 C 197.000 88.833,197.333 88.758,197.333 88.667 C 197.333 88.575,197.671 88.500,198.083 88.500 C 198.496 88.500,198.833 88.435,198.833 88.357 C 198.833 88.278,199.244 88.171,199.745 88.119 C 200.640 88.027,201.634 87.769,202.206 87.480 C 202.365 87.399,202.610 87.333,202.750 87.333 C 202.890 87.333,203.154 87.258,203.336 87.167 C 203.518 87.075,203.816 86.925,203.998 86.833 C 204.180 86.742,204.442 86.667,204.581 86.667 C 204.720 86.667,204.833 86.592,204.833 86.500 C 204.833 86.408,205.021 86.333,205.250 86.333 C 205.479 86.333,205.667 86.258,205.667 86.167 C 205.667 86.075,205.817 86.000,206.000 86.000 C 206.183 86.000,206.333 85.925,206.333 85.833 C 206.333 85.742,206.457 85.667,206.608 85.667 C 206.932 85.667,208.725 84.822,208.806 84.631 C 208.836 84.559,209.005 84.500,209.181 84.500 C 209.356 84.500,209.500 84.425,209.500 84.333 C 209.500 84.242,209.598 84.167,209.719 84.167 C 209.839 84.167,210.083 84.035,210.260 83.875 C 210.438 83.715,210.883 83.433,211.250 83.250 C 211.617 83.067,212.038 82.785,212.186 82.625 C 212.334 82.465,212.539 82.333,212.642 82.333 C 212.744 82.333,213.058 82.127,213.339 81.875 C 213.620 81.623,214.080 81.210,214.360 80.958 C 214.640 80.706,214.938 80.500,215.024 80.500 C 215.109 80.500,215.738 79.956,216.422 79.292 C 217.106 78.627,217.835 77.923,218.041 77.727 C 218.557 77.238,219.500 76.172,219.500 76.078 C 219.500 76.035,219.800 75.691,220.167 75.313 C 220.533 74.936,220.833 74.555,220.833 74.468 C 220.833 74.381,220.927 74.205,221.042 74.077 C 221.519 73.545,221.667 73.340,221.667 73.210 C 221.667 73.135,221.817 72.965,222.000 72.833 C 222.183 72.701,222.333 72.460,222.333 72.297 C 222.333 72.133,222.403 72.000,222.489 72.000 C 222.574 72.000,222.692 71.850,222.750 71.668 C 222.808 71.485,222.944 71.241,223.053 71.126 C 223.325 70.837,224.836 67.798,224.834 67.542 C 224.834 67.427,224.908 67.333,225.000 67.333 C 225.092 67.333,225.167 67.183,225.167 67.000 C 225.167 66.817,225.242 66.667,225.333 66.667 C 225.425 66.667,225.500 66.517,225.500 66.333 C 225.500 66.150,225.575 66.000,225.667 66.000 C 225.758 66.000,225.833 65.817,225.833 65.593 C 225.833 65.369,225.900 65.145,225.981 65.095 C 226.062 65.045,226.179 64.667,226.240 64.256 C 226.302 63.844,226.423 63.464,226.510 63.411 C 226.596 63.357,226.667 63.093,226.667 62.823 C 226.667 62.554,226.742 62.333,226.833 62.333 C 226.925 62.333,227.000 62.108,227.000 61.833 C 227.000 61.558,227.075 61.333,227.167 61.333 C 227.258 61.333,227.333 61.071,227.333 60.750 C 227.333 60.429,227.408 60.167,227.500 60.167 C 227.592 60.167,227.667 59.792,227.667 59.333 C 227.667 58.875,227.734 58.500,227.817 58.500 C 227.900 58.500,228.014 58.106,228.069 57.625 C 228.125 57.144,228.254 56.188,228.355 55.500 C 228.714 53.064,228.554 42.006,228.153 41.592 C 228.069 41.505,228.000 41.073,228.000 40.633 C 228.000 40.193,227.925 39.833,227.833 39.833 C 227.742 39.833,227.667 39.496,227.667 39.083 C 227.667 38.671,227.592 38.333,227.500 38.333 C 227.408 38.333,227.333 38.033,227.333 37.667 C 227.333 37.300,227.258 37.000,227.167 37.000 C 227.075 37.000,227.000 36.775,227.000 36.500 C 227.000 36.225,226.925 36.000,226.833 36.000 C 226.742 36.000,226.667 35.737,226.667 35.417 C 226.667 35.096,226.600 34.833,226.519 34.833 C 226.438 34.833,226.321 34.496,226.259 34.083 C 226.197 33.671,226.076 33.333,225.990 33.333 C 225.904 33.333,225.833 33.108,225.833 32.833 C 225.833 32.558,225.758 32.333,225.667 32.333 C 225.575 32.333,225.500 32.183,225.500 32.000 C 225.500 31.817,225.425 31.667,225.333 31.667 C 225.242 31.667,225.167 31.479,225.167 31.250 C 225.167 31.021,225.092 30.833,225.000 30.833 C 224.908 30.833,224.833 30.683,224.833 30.500 C 224.833 30.317,224.758 30.167,224.667 30.167 C 224.575 30.167,224.500 30.017,224.500 29.833 C 224.500 29.650,224.440 29.500,224.368 29.500 C 224.295 29.500,224.096 29.162,223.926 28.750 C 223.756 28.337,223.553 28.000,223.475 28.000 C 223.397 28.000,223.333 27.850,223.333 27.667 C 223.333 27.483,223.258 27.333,223.167 27.333 C 223.075 27.333,223.000 27.235,223.000 27.115 C 223.000 26.995,222.850 26.735,222.667 26.538 C 222.483 26.342,222.333 26.119,222.333 26.044 C 222.333 25.968,222.183 25.799,222.000 25.667 C 221.817 25.535,221.667 25.293,221.667 25.130 C 221.667 24.967,221.597 24.833,221.511 24.833 C 221.426 24.833,221.311 24.692,221.256 24.519 C 221.201 24.347,220.934 23.972,220.662 23.688 C 220.389 23.403,220.167 23.095,220.167 23.003 C 220.167 22.776,215.044 17.667,214.816 17.667 C 214.716 17.667,214.424 17.442,214.167 17.167 C 213.910 16.892,213.617 16.667,213.516 16.667 C 213.416 16.667,213.333 16.609,213.333 16.538 C 213.333 16.467,213.052 16.262,212.708 16.082 C 212.365 15.902,211.971 15.635,211.833 15.490 C 211.696 15.344,211.340 15.118,211.042 14.988 C 210.744 14.858,210.500 14.704,210.500 14.646 C 210.500 14.514,208.790 13.667,208.525 13.667 C 208.420 13.667,208.333 13.592,208.333 13.500 C 208.333 13.408,208.183 13.333,208.000 13.333 C 207.817 13.333,207.667 13.258,207.667 13.167 C 207.667 13.075,207.517 13.000,207.333 13.000 C 207.150 13.000,207.000 12.925,207.000 12.833 C 207.000 12.742,206.850 12.667,206.667 12.667 C 206.483 12.667,206.333 12.592,206.333 12.500 C 206.333 12.408,206.146 12.333,205.917 12.333 C 205.688 12.333,205.500 12.258,205.500 12.167 C 205.500 12.075,205.350 12.000,205.167 12.000 C 204.983 12.000,204.833 11.925,204.833 11.833 C 204.833 11.742,204.608 11.667,204.333 11.667 C 204.058 11.667,203.833 11.597,203.833 11.512 C 203.833 11.427,203.421 11.306,202.917 11.243 C 202.412 11.180,202.000 11.062,202.000 10.981 C 202.000 10.900,201.775 10.833,201.500 10.833 C 201.225 10.833,201.000 10.758,201.000 10.667 C 201.000 10.575,200.737 10.500,200.417 10.500 C 200.096 10.500,199.833 10.425,199.833 10.333 C 199.833 10.242,199.548 10.167,199.200 10.167 C 198.852 10.167,198.495 10.099,198.408 10.017 C 198.250 9.867,197.473 9.727,195.917 9.569 C 195.458 9.522,194.933 9.415,194.750 9.330 C 194.020 8.992,142.775 8.613,142.446 8.943 M188.500 25.828 C 189.737 25.940,190.775 26.099,190.806 26.182 C 190.836 26.265,191.113 26.333,191.421 26.333 C 191.729 26.333,192.027 26.408,192.083 26.500 C 192.140 26.592,192.444 26.667,192.760 26.667 C 193.075 26.667,193.333 26.742,193.333 26.833 C 193.333 26.925,193.516 27.000,193.740 27.000 C 193.964 27.000,194.193 27.075,194.250 27.167 C 194.307 27.258,194.536 27.333,194.760 27.333 C 194.984 27.333,195.167 27.408,195.167 27.500 C 195.167 27.592,195.317 27.667,195.500 27.667 C 195.683 27.667,195.833 27.742,195.833 27.833 C 195.833 27.925,196.021 28.000,196.250 28.000 C 196.479 28.000,196.667 28.067,196.667 28.148 C 196.667 28.230,196.916 28.343,197.221 28.400 C 197.526 28.457,197.919 28.634,198.096 28.794 C 198.272 28.953,198.642 29.195,198.917 29.332 C 199.192 29.469,199.538 29.713,199.686 29.874 C 199.834 30.035,200.023 30.167,200.106 30.167 C 200.594 30.167,204.500 34.064,204.500 34.551 C 204.500 34.666,204.650 34.868,204.833 35.000 C 205.017 35.132,205.167 35.325,205.167 35.428 C 205.167 35.531,205.317 35.751,205.500 35.917 C 205.683 36.083,205.833 36.319,205.833 36.442 C 205.833 36.566,205.908 36.667,206.000 36.667 C 206.092 36.667,206.167 36.787,206.167 36.933 C 206.167 37.182,206.497 38.041,206.847 38.706 C 206.931 38.865,207.000 39.109,207.000 39.248 C 207.000 39.386,207.075 39.500,207.167 39.500 C 207.258 39.500,207.333 39.725,207.333 40.000 C 207.333 40.275,207.408 40.500,207.500 40.500 C 207.592 40.500,207.667 40.688,207.667 40.917 C 207.667 41.146,207.742 41.333,207.833 41.333 C 207.925 41.333,208.000 41.629,208.000 41.990 C 208.000 42.351,208.075 42.693,208.167 42.750 C 208.258 42.807,208.333 43.217,208.333 43.663 C 208.333 44.149,208.414 44.499,208.535 44.540 C 208.687 44.590,208.737 45.780,208.737 49.333 C 208.737 52.887,208.687 54.076,208.535 54.127 C 208.414 54.168,208.333 54.520,208.333 55.014 C 208.333 55.465,208.258 55.833,208.167 55.833 C 208.075 55.833,208.000 56.091,208.000 56.407 C 208.000 56.722,207.925 57.027,207.833 57.083 C 207.742 57.140,207.667 57.444,207.667 57.760 C 207.667 58.075,207.592 58.333,207.500 58.333 C 207.408 58.333,207.333 58.521,207.333 58.750 C 207.333 58.979,207.258 59.167,207.167 59.167 C 207.075 59.167,207.000 59.317,207.000 59.500 C 207.000 59.683,206.925 59.833,206.833 59.833 C 206.742 59.833,206.667 59.950,206.667 60.094 C 206.667 60.420,205.825 62.231,205.638 62.306 C 205.562 62.336,205.500 62.505,205.500 62.681 C 205.500 62.856,205.425 63.000,205.333 63.000 C 205.242 63.000,205.167 63.076,205.167 63.168 C 205.167 63.261,204.942 63.572,204.667 63.860 C 204.392 64.147,204.167 64.450,204.167 64.532 C 204.167 64.770,203.708 65.277,202.103 66.813 C 201.588 67.306,201.167 67.769,201.167 67.843 C 201.167 67.916,200.867 68.108,200.500 68.270 C 200.133 68.432,199.833 68.625,199.833 68.699 C 199.833 68.773,199.732 68.833,199.609 68.833 C 199.486 68.833,199.249 68.983,199.083 69.167 C 198.917 69.350,198.681 69.500,198.558 69.500 C 198.434 69.500,198.333 69.575,198.333 69.667 C 198.333 69.758,198.183 69.833,198.000 69.833 C 197.817 69.833,197.667 69.908,197.667 70.000 C 197.667 70.092,197.517 70.167,197.333 70.167 C 197.150 70.167,197.000 70.242,197.000 70.333 C 197.000 70.425,196.887 70.500,196.750 70.500 C 196.612 70.500,196.500 70.575,196.500 70.667 C 196.500 70.758,196.410 70.833,196.300 70.833 C 195.912 70.833,194.167 71.409,194.167 71.537 C 194.167 71.608,193.946 71.667,193.677 71.667 C 193.407 71.667,193.140 71.742,193.083 71.833 C 193.027 71.925,192.760 72.000,192.490 72.000 C 192.221 72.000,192.000 72.075,192.000 72.167 C 192.000 72.258,191.704 72.333,191.343 72.333 C 190.982 72.333,190.640 72.408,190.583 72.500 C 190.527 72.592,190.152 72.667,189.750 72.667 C 189.348 72.667,188.973 72.742,188.917 72.833 C 188.860 72.925,188.143 73.000,187.323 73.000 C 186.441 73.000,185.833 73.068,185.833 73.167 C 185.833 73.276,181.750 73.333,173.917 73.333 L 162.000 73.333 162.000 49.415 L 162.000 25.496 174.125 25.561 C 181.769 25.601,187.081 25.700,188.500 25.828 M74.583 31.833 C 74.527 31.925,74.072 32.000,73.573 32.000 C 73.075 32.000,72.667 32.075,72.667 32.167 C 72.667 32.258,72.329 32.333,71.917 32.333 C 71.504 32.333,71.167 32.408,71.167 32.500 C 71.167 32.592,70.909 32.667,70.593 32.667 C 70.278 32.667,69.973 32.742,69.917 32.833 C 69.860 32.925,69.631 33.000,69.407 33.000 C 69.183 33.000,69.000 33.067,69.000 33.148 C 69.000 33.230,68.756 33.333,68.458 33.378 C 67.509 33.520,66.167 33.908,66.167 34.039 C 66.167 34.109,65.984 34.167,65.760 34.167 C 65.536 34.167,65.307 34.242,65.250 34.333 C 65.193 34.425,65.001 34.500,64.823 34.500 C 64.646 34.500,64.500 34.575,64.500 34.667 C 64.500 34.758,64.313 34.833,64.083 34.833 C 63.854 34.833,63.667 34.908,63.667 35.000 C 63.667 35.092,63.484 35.167,63.260 35.167 C 63.036 35.167,62.807 35.242,62.750 35.333 C 62.693 35.425,62.501 35.500,62.323 35.500 C 62.146 35.500,62.000 35.575,62.000 35.667 C 62.000 35.758,61.831 35.834,61.625 35.834 C 61.419 35.835,61.035 35.947,60.773 36.084 C 60.510 36.221,60.158 36.333,59.991 36.333 C 59.823 36.333,59.640 36.408,59.583 36.500 C 59.527 36.592,59.297 36.667,59.073 36.667 C 58.850 36.667,58.667 36.742,58.667 36.833 C 58.667 36.925,58.442 37.000,58.167 37.000 C 57.892 37.000,57.667 37.075,57.667 37.167 C 57.667 37.258,57.446 37.333,57.177 37.333 C 56.907 37.333,56.640 37.408,56.583 37.500 C 56.525 37.595,55.696 37.667,54.667 37.667 C 53.637 37.667,52.808 37.595,52.750 37.500 C 52.693 37.408,52.426 37.333,52.157 37.333 C 51.887 37.333,51.667 37.258,51.667 37.167 C 51.667 37.075,51.478 37.000,51.248 37.000 C 51.017 37.000,50.699 36.934,50.539 36.853 C 49.997 36.577,49.418 36.364,48.376 36.057 C 47.804 35.888,47.336 35.694,47.335 35.625 C 47.334 35.556,47.186 35.500,47.005 35.500 C 46.825 35.500,46.410 35.350,46.083 35.167 C 45.757 34.983,45.342 34.833,45.162 34.833 C 44.981 34.833,44.833 34.758,44.833 34.667 C 44.833 34.575,44.720 34.500,44.581 34.500 C 44.442 34.500,44.199 34.434,44.039 34.353 C 43.473 34.065,42.902 33.866,41.833 33.586 C 41.237 33.430,40.620 33.234,40.461 33.151 C 40.301 33.068,39.945 33.000,39.669 33.000 C 39.393 33.000,39.167 32.925,39.167 32.833 C 39.167 32.742,38.829 32.667,38.417 32.667 C 38.004 32.667,37.667 32.592,37.667 32.500 C 37.667 32.406,37.194 32.333,36.583 32.333 C 35.972 32.333,35.500 32.261,35.500 32.167 C 35.500 32.063,34.611 32.000,33.167 32.000 C 31.722 32.000,30.833 32.063,30.833 32.167 C 30.833 32.263,30.306 32.333,29.583 32.333 C 28.861 32.333,28.333 32.404,28.333 32.500 C 28.333 32.592,27.958 32.667,27.500 32.667 C 27.042 32.667,26.667 32.742,26.667 32.833 C 26.667 32.925,26.404 33.000,26.083 33.000 C 25.762 33.000,25.500 33.075,25.500 33.167 C 25.500 33.258,25.266 33.333,24.981 33.333 C 24.485 33.333,23.075 33.719,22.461 34.023 C 22.301 34.102,22.058 34.167,21.919 34.167 C 21.780 34.167,21.667 34.242,21.667 34.333 C 21.667 34.425,21.479 34.500,21.250 34.500 C 21.021 34.500,20.833 34.575,20.833 34.667 C 20.833 34.758,20.683 34.833,20.500 34.833 C 20.317 34.833,20.167 34.908,20.167 35.000 C 20.167 35.092,20.023 35.167,19.847 35.167 C 19.672 35.167,19.503 35.223,19.472 35.292 C 19.442 35.360,18.967 35.642,18.417 35.917 C 17.867 36.192,17.379 36.454,17.333 36.500 C 17.287 36.546,17.044 36.690,16.792 36.820 C 16.540 36.950,16.333 37.119,16.333 37.195 C 16.333 37.271,16.221 37.333,16.083 37.333 C 15.946 37.333,15.833 37.408,15.833 37.500 C 15.833 37.592,15.739 37.667,15.623 37.667 C 15.508 37.667,15.114 37.928,14.748 38.247 C 14.383 38.566,14.021 38.828,13.945 38.830 C 13.869 38.832,13.519 39.133,13.167 39.500 C 12.814 39.867,12.480 40.167,12.424 40.167 C 12.368 40.167,12.068 40.421,11.757 40.731 C 11.447 41.042,11.053 41.398,10.881 41.523 C 10.710 41.648,10.386 42.012,10.161 42.333 C 9.936 42.654,9.433 43.223,9.043 43.596 C 8.652 43.970,8.333 44.371,8.333 44.488 C 8.333 44.604,8.108 44.910,7.833 45.167 C 7.558 45.424,7.333 45.705,7.333 45.791 C 7.333 45.878,7.183 46.084,7.000 46.250 C 6.817 46.416,6.667 46.620,6.667 46.704 C 6.667 46.788,6.554 46.970,6.417 47.107 C 6.279 47.245,6.167 47.502,6.167 47.679 C 6.167 47.855,6.092 48.000,6.000 48.000 C 5.908 48.000,5.833 48.112,5.833 48.250 C 5.833 48.387,5.758 48.500,5.667 48.500 C 5.575 48.500,5.500 48.612,5.500 48.750 C 5.500 48.887,5.425 49.000,5.333 49.000 C 5.242 49.000,5.167 49.112,5.167 49.250 C 5.167 49.387,5.092 49.500,5.000 49.500 C 4.908 49.500,4.833 49.650,4.833 49.833 C 4.833 50.017,4.758 50.167,4.667 50.167 C 4.575 50.167,4.500 50.310,4.500 50.486 C 4.500 50.662,4.444 50.831,4.375 50.861 C 4.208 50.935,3.667 52.117,3.667 52.407 C 3.667 52.604,3.434 53.138,2.812 54.373 C 2.732 54.532,2.667 54.776,2.667 54.914 C 2.667 55.053,2.592 55.167,2.500 55.167 C 2.408 55.167,2.333 55.392,2.333 55.667 C 2.333 55.942,2.258 56.167,2.167 56.167 C 2.075 56.167,2.000 56.387,2.000 56.657 C 2.000 56.926,1.925 57.193,1.833 57.250 C 1.742 57.307,1.667 57.569,1.667 57.833 C 1.667 58.098,1.596 58.357,1.510 58.411 C 1.423 58.464,1.301 59.033,1.238 59.674 C 1.175 60.316,1.058 60.881,0.978 60.930 C 0.898 60.979,0.833 61.390,0.833 61.843 C 0.833 62.296,0.758 62.667,0.667 62.667 C 0.573 62.667,0.500 63.134,0.500 63.736 C 0.500 64.435,0.429 64.829,0.295 64.874 C -0.001 64.973,0.001 78.695,0.297 78.794 C 0.432 78.838,0.500 79.275,0.500 80.097 C 0.500 80.810,0.571 81.333,0.667 81.333 C 0.758 81.333,0.833 81.746,0.833 82.250 C 0.833 82.754,0.898 83.167,0.976 83.167 C 1.055 83.167,1.171 83.853,1.234 84.692 C 1.297 85.532,1.421 86.352,1.508 86.515 C 1.595 86.678,1.667 87.037,1.667 87.313 C 1.667 87.588,1.742 87.860,1.833 87.917 C 1.925 87.973,2.000 88.278,2.000 88.593 C 2.000 88.909,2.075 89.167,2.167 89.167 C 2.258 89.167,2.333 89.425,2.333 89.740 C 2.333 90.056,2.408 90.360,2.500 90.417 C 2.592 90.473,2.667 90.778,2.667 91.093 C 2.667 91.409,2.742 91.667,2.833 91.667 C 2.925 91.667,3.000 91.892,3.000 92.167 C 3.000 92.442,3.075 92.667,3.167 92.667 C 3.258 92.667,3.333 92.929,3.333 93.250 C 3.333 93.571,3.408 93.833,3.500 93.833 C 3.592 93.833,3.666 94.002,3.666 94.208 C 3.665 94.687,4.262 96.539,4.686 97.373 C 4.767 97.532,4.833 97.776,4.833 97.914 C 4.833 98.053,4.908 98.167,5.000 98.167 C 5.092 98.167,5.167 98.392,5.167 98.667 C 5.167 98.942,5.242 99.167,5.333 99.167 C 5.425 99.167,5.500 99.312,5.500 99.490 C 5.500 99.668,5.575 99.860,5.667 99.917 C 5.758 99.973,5.833 100.165,5.833 100.343 C 5.833 100.521,5.900 100.667,5.981 100.667 C 6.063 100.667,6.181 100.943,6.245 101.280 C 6.372 101.961,6.994 103.386,7.200 103.472 C 7.274 103.503,7.333 103.664,7.333 103.831 C 7.333 104.161,8.005 105.549,8.208 105.639 C 8.277 105.669,8.333 105.838,8.333 106.014 C 8.333 106.190,8.408 106.333,8.500 106.333 C 8.592 106.333,8.667 106.443,8.667 106.578 C 8.667 106.879,9.204 108.063,9.375 108.139 C 9.444 108.169,9.500 108.304,9.500 108.438 C 9.500 108.571,9.650 108.842,9.833 109.038 C 10.017 109.235,10.167 109.495,10.167 109.615 C 10.167 109.735,10.242 109.833,10.333 109.833 C 10.425 109.833,10.500 109.983,10.500 110.167 C 10.500 110.350,10.575 110.500,10.667 110.500 C 10.758 110.500,10.833 110.612,10.833 110.750 C 10.833 110.888,10.908 111.000,11.000 111.000 C 11.092 111.000,11.167 111.146,11.167 111.323 C 11.167 111.501,11.240 111.692,11.329 111.747 C 11.418 111.802,11.609 112.097,11.754 112.401 C 11.898 112.706,12.163 113.112,12.342 113.304 C 12.520 113.496,12.667 113.752,12.667 113.873 C 12.667 113.994,12.817 114.201,13.000 114.333 C 13.183 114.465,13.333 114.634,13.333 114.707 C 13.333 114.876,14.155 116.145,14.542 116.573 C 14.702 116.751,14.833 116.978,14.833 117.078 C 14.833 117.178,14.983 117.368,15.167 117.500 C 15.350 117.632,15.500 117.809,15.500 117.892 C 15.500 117.976,15.633 118.166,15.796 118.314 C 15.958 118.462,16.176 118.771,16.281 119.000 C 16.482 119.444,17.011 120.138,17.625 120.767 C 17.831 120.979,18.000 121.240,18.000 121.348 C 18.000 121.456,18.135 121.666,18.300 121.814 C 18.465 121.962,18.821 122.383,19.092 122.750 C 19.776 123.679,24.591 128.500,24.834 128.500 C 24.943 128.500,25.243 128.725,25.500 129.000 C 25.757 129.275,26.003 129.500,26.047 129.500 C 26.090 129.500,26.562 129.762,27.095 130.083 C 27.628 130.404,28.199 130.667,28.365 130.667 C 28.531 130.667,28.667 130.723,28.668 130.792 C 28.670 130.961,29.494 131.333,29.867 131.333 C 30.032 131.333,30.167 131.408,30.167 131.500 C 30.167 131.592,30.392 131.667,30.667 131.667 C 30.942 131.667,31.167 131.742,31.167 131.833 C 31.167 131.925,31.489 132.000,31.883 132.000 C 32.278 132.000,32.680 132.080,32.778 132.178 C 33.065 132.465,38.500 132.124,38.500 131.819 C 38.500 131.735,38.800 131.667,39.167 131.667 C 39.533 131.667,39.833 131.592,39.833 131.500 C 39.833 131.408,40.058 131.333,40.333 131.333 C 40.608 131.333,40.833 131.258,40.833 131.167 C 40.833 131.075,41.021 131.000,41.250 131.000 C 41.479 131.000,41.667 130.925,41.667 130.833 C 41.667 130.742,41.852 130.667,42.078 130.667 C 42.445 130.667,43.212 130.398,44.039 129.980 C 44.199 129.899,44.442 129.833,44.581 129.833 C 44.720 129.833,44.833 129.758,44.833 129.667 C 44.833 129.575,45.021 129.500,45.250 129.500 C 45.479 129.500,45.667 129.425,45.667 129.333 C 45.667 129.242,45.817 129.167,46.000 129.167 C 46.183 129.167,46.333 129.092,46.333 129.000 C 46.333 128.908,46.516 128.833,46.740 128.833 C 46.964 128.833,47.193 128.758,47.250 128.667 C 47.307 128.575,47.499 128.500,47.677 128.500 C 47.854 128.500,48.000 128.438,48.000 128.361 C 48.000 128.285,48.394 128.140,48.875 128.038 C 49.356 127.937,50.087 127.768,50.500 127.662 C 50.913 127.557,51.587 127.432,52.000 127.386 C 52.413 127.339,52.821 127.233,52.908 127.151 C 53.131 126.939,60.167 126.954,60.167 127.167 C 60.167 127.258,60.500 127.333,60.907 127.333 C 61.314 127.333,61.688 127.400,61.739 127.482 C 61.790 127.564,62.113 127.672,62.457 127.721 C 63.546 127.878,64.833 128.227,64.833 128.366 C 64.833 128.440,64.947 128.500,65.086 128.500 C 65.224 128.500,65.468 128.566,65.627 128.646 C 66.921 129.298,67.408 129.500,67.682 129.500 C 67.857 129.500,68.000 129.575,68.000 129.667 C 68.000 129.758,68.150 129.833,68.333 129.833 C 68.517 129.833,68.667 129.890,68.668 129.958 C 68.669 130.027,69.138 130.220,69.710 130.387 C 70.282 130.554,70.880 130.760,71.039 130.845 C 71.199 130.930,71.480 131.000,71.664 131.000 C 71.849 131.000,72.000 131.075,72.000 131.167 C 72.000 131.258,72.225 131.333,72.500 131.333 C 72.775 131.333,73.000 131.408,73.000 131.500 C 73.000 131.592,73.337 131.667,73.750 131.667 C 74.162 131.667,74.500 131.742,74.500 131.833 C 74.500 131.939,75.667 132.000,77.667 132.000 C 79.667 132.000,80.833 131.939,80.833 131.833 C 80.833 131.742,81.171 131.667,81.583 131.667 C 81.996 131.667,82.333 131.592,82.333 131.500 C 82.333 131.408,82.558 131.333,82.833 131.333 C 83.108 131.333,83.333 131.258,83.333 131.167 C 83.333 131.075,83.521 131.000,83.750 131.000 C 83.979 131.000,84.167 130.925,84.167 130.833 C 84.167 130.742,84.272 130.667,84.401 130.667 C 84.730 130.667,86.333 129.817,86.333 129.643 C 86.333 129.564,86.467 129.500,86.630 129.500 C 86.793 129.500,87.035 129.350,87.167 129.167 C 87.299 128.983,87.503 128.833,87.620 128.833 C 87.737 128.833,88.151 128.533,88.540 128.167 C 88.930 127.800,89.303 127.500,89.370 127.500 C 89.513 127.500,90.958 126.045,91.917 124.936 C 92.283 124.512,92.865 123.859,93.208 123.486 C 93.552 123.112,93.833 122.753,93.833 122.688 C 93.833 122.623,94.133 122.238,94.500 121.833 C 94.867 121.428,95.167 121.016,95.167 120.918 C 95.167 120.820,95.317 120.632,95.500 120.500 C 95.683 120.368,95.833 120.196,95.833 120.118 C 95.833 120.040,95.927 119.872,96.042 119.744 C 96.551 119.175,96.667 119.000,96.667 118.794 C 96.667 118.673,96.817 118.465,97.000 118.333 C 97.183 118.201,97.333 118.031,97.333 117.956 C 97.333 117.880,97.521 117.631,97.750 117.402 C 97.979 117.172,98.167 116.925,98.167 116.851 C 98.167 116.778,98.317 116.545,98.500 116.333 C 98.683 116.122,98.833 115.848,98.833 115.724 C 98.833 115.601,98.896 115.500,98.972 115.500 C 99.048 115.500,99.216 115.294,99.346 115.042 C 99.475 114.790,99.713 114.462,99.874 114.314 C 100.035 114.166,100.167 113.922,100.167 113.772 C 100.167 113.622,100.242 113.500,100.333 113.500 C 100.425 113.500,100.500 113.428,100.500 113.341 C 100.500 113.253,100.688 112.905,100.917 112.567 C 101.146 112.230,101.333 111.841,101.333 111.705 C 101.333 111.568,101.470 111.334,101.638 111.186 C 101.805 111.038,102.048 110.673,102.178 110.375 C 102.308 110.077,102.471 109.833,102.541 109.833 C 102.610 109.833,102.667 109.683,102.667 109.500 C 102.667 109.317,102.742 109.167,102.833 109.167 C 102.925 109.167,103.000 109.017,103.000 108.833 C 103.000 108.650,103.057 108.500,103.127 108.500 C 103.282 108.500,103.833 107.263,103.833 106.916 C 103.833 106.779,103.908 106.667,104.000 106.667 C 104.092 106.667,104.167 106.523,104.167 106.347 C 104.167 106.172,104.227 106.003,104.300 105.972 C 104.486 105.895,105.500 103.745,105.500 103.427 C 105.500 103.284,105.564 103.167,105.641 103.167 C 105.787 103.167,106.333 101.640,106.333 101.231 C 106.333 101.104,106.408 101.000,106.500 101.000 C 106.592 101.000,106.667 100.813,106.667 100.583 C 106.667 100.354,106.742 100.167,106.833 100.167 C 106.925 100.167,107.000 99.942,107.000 99.667 C 107.000 99.392,107.075 99.167,107.167 99.167 C 107.258 99.167,107.333 98.984,107.333 98.760 C 107.333 98.536,107.408 98.307,107.500 98.250 C 107.592 98.193,107.667 97.964,107.667 97.740 C 107.667 97.516,107.742 97.333,107.833 97.333 C 108.081 97.333,108.035 96.845,107.762 96.571 C 107.631 96.440,107.406 96.333,107.262 96.333 C 107.118 96.333,107.000 96.258,107.000 96.167 C 107.000 96.075,106.869 95.998,106.708 95.995 C 106.548 95.992,106.271 95.879,106.093 95.745 C 105.915 95.610,105.651 95.500,105.505 95.500 C 105.359 95.500,105.132 95.350,105.000 95.167 C 104.868 94.983,104.626 94.833,104.463 94.833 C 104.300 94.833,104.167 94.758,104.167 94.667 C 104.167 94.575,104.071 94.500,103.953 94.500 C 103.836 94.500,103.632 94.350,103.500 94.167 C 103.368 93.983,103.190 93.833,103.104 93.833 C 103.018 93.833,102.702 93.646,102.402 93.417 C 102.101 93.187,101.796 93.000,101.723 93.000 C 101.650 93.000,101.326 92.715,101.004 92.368 C 100.681 92.020,100.154 91.553,99.833 91.331 C 99.236 90.917,97.333 89.077,97.333 88.913 C 97.333 88.863,97.090 88.566,96.792 88.254 C 96.107 87.535,95.972 87.357,95.680 86.792 C 95.550 86.540,95.381 86.333,95.305 86.333 C 95.229 86.333,95.167 86.237,95.167 86.120 C 95.167 86.003,95.017 85.799,94.833 85.667 C 94.650 85.535,94.500 85.293,94.500 85.130 C 94.500 84.967,94.425 84.833,94.333 84.833 C 94.242 84.833,94.167 84.721,94.167 84.583 C 94.167 84.446,94.098 84.333,94.013 84.333 C 93.929 84.333,93.810 84.108,93.750 83.833 C 93.690 83.558,93.571 83.333,93.487 83.333 C 93.402 83.333,93.333 83.183,93.333 83.000 C 93.333 82.817,93.258 82.667,93.167 82.667 C 93.075 82.667,93.000 82.517,93.000 82.333 C 93.000 82.150,92.925 82.000,92.833 82.000 C 92.742 82.000,92.667 81.854,92.667 81.677 C 92.667 81.499,92.592 81.307,92.500 81.250 C 92.408 81.193,92.333 81.001,92.333 80.823 C 92.333 80.646,92.258 80.500,92.167 80.500 C 92.075 80.500,92.000 80.275,92.000 80.000 C 92.000 79.725,91.925 79.500,91.833 79.500 C 91.742 79.500,91.667 79.327,91.667 79.117 C 91.667 78.906,91.598 78.662,91.515 78.575 C 91.362 78.416,91.051 76.890,90.889 75.500 C 90.840 75.087,90.733 74.679,90.651 74.592 C 90.568 74.505,90.500 73.815,90.500 73.060 C 90.500 72.304,90.425 71.640,90.333 71.583 C 90.241 71.527,90.167 70.779,90.167 69.917 C 90.167 69.054,90.241 68.307,90.333 68.250 C 90.425 68.193,90.500 67.556,90.500 66.833 C 90.500 66.111,90.575 65.473,90.667 65.417 C 90.758 65.360,90.833 64.985,90.833 64.583 C 90.833 64.182,90.901 63.811,90.984 63.760 C 91.066 63.709,91.186 63.217,91.250 62.667 C 91.314 62.117,91.434 61.667,91.516 61.667 C 91.599 61.667,91.667 61.442,91.667 61.167 C 91.667 60.892,91.742 60.667,91.833 60.667 C 91.925 60.667,92.000 60.479,92.000 60.250 C 92.000 60.021,92.075 59.833,92.167 59.833 C 92.258 59.833,92.333 59.683,92.333 59.500 C 92.333 59.317,92.408 59.167,92.500 59.167 C 92.592 59.167,92.667 58.979,92.667 58.750 C 92.667 58.521,92.742 58.333,92.833 58.333 C 92.925 58.333,93.000 58.183,93.000 58.000 C 93.000 57.817,93.075 57.667,93.167 57.667 C 93.258 57.667,93.333 57.549,93.333 57.405 C 93.333 57.261,93.446 57.030,93.583 56.893 C 93.721 56.755,93.833 56.498,93.833 56.321 C 93.833 56.145,93.908 56.000,94.000 56.000 C 94.092 56.000,94.167 55.887,94.167 55.750 C 94.167 55.612,94.229 55.500,94.305 55.500 C 94.381 55.500,94.550 55.294,94.679 55.042 C 94.808 54.790,95.046 54.462,95.207 54.314 C 95.368 54.166,95.500 53.951,95.500 53.838 C 95.500 53.724,95.688 53.484,95.917 53.304 C 96.146 53.123,96.333 52.859,96.333 52.716 C 96.333 52.454,101.387 47.333,101.646 47.333 C 101.722 47.333,102.009 47.118,102.284 46.855 C 102.559 46.593,102.851 46.349,102.934 46.314 C 104.380 45.697,104.900 44.862,104.167 44.333 C 103.983 44.201,103.833 44.001,103.833 43.887 C 103.833 43.774,103.646 43.494,103.417 43.265 C 103.188 43.036,103.000 42.775,103.000 42.685 C 103.000 42.491,99.226 38.667,99.035 38.667 C 98.963 38.667,98.572 38.367,98.167 38.000 C 97.762 37.633,97.350 37.333,97.252 37.333 C 97.154 37.333,96.965 37.183,96.833 37.000 C 96.701 36.817,96.533 36.667,96.460 36.667 C 96.387 36.667,96.030 36.479,95.667 36.250 C 95.304 36.021,94.893 35.833,94.753 35.833 C 94.614 35.833,94.500 35.758,94.500 35.667 C 94.500 35.575,94.350 35.500,94.167 35.500 C 93.983 35.500,93.833 35.425,93.833 35.333 C 93.833 35.242,93.721 35.167,93.583 35.167 C 93.446 35.167,93.333 35.092,93.333 35.000 C 93.333 34.908,93.183 34.833,93.000 34.833 C 92.817 34.833,92.667 34.758,92.667 34.667 C 92.667 34.575,92.517 34.500,92.333 34.500 C 92.150 34.500,92.000 34.425,92.000 34.333 C 92.000 34.242,91.865 34.167,91.700 34.167 C 91.535 34.167,91.329 34.104,91.242 34.028 C 91.155 33.952,90.596 33.757,90.000 33.596 C 89.404 33.434,88.786 33.234,88.627 33.151 C 88.468 33.068,88.187 33.000,88.002 33.000 C 87.818 33.000,87.667 32.925,87.667 32.833 C 87.667 32.742,87.367 32.667,87.000 32.667 C 86.633 32.667,86.333 32.592,86.333 32.500 C 86.333 32.408,85.996 32.333,85.583 32.333 C 85.171 32.333,84.833 32.258,84.833 32.167 C 84.833 32.074,84.392 32.000,83.843 32.000 C 83.299 32.000,82.807 31.925,82.750 31.833 C 82.686 31.730,81.140 31.667,78.667 31.667 C 76.193 31.667,74.647 31.730,74.583 31.833 M271.833 41.168 C 271.329 41.241,270.040 41.308,268.968 41.317 C 267.868 41.326,266.975 41.406,266.917 41.500 C 266.860 41.592,266.373 41.667,265.833 41.667 C 265.294 41.667,264.807 41.742,264.750 41.833 C 264.693 41.925,264.276 42.000,263.823 42.000 C 263.371 42.000,263.000 42.075,263.000 42.167 C 263.000 42.258,262.704 42.333,262.343 42.333 C 261.982 42.333,261.640 42.408,261.583 42.500 C 261.527 42.592,261.227 42.667,260.917 42.667 C 260.607 42.667,260.307 42.742,260.250 42.833 C 260.193 42.925,259.926 43.000,259.657 43.000 C 259.387 43.000,259.167 43.060,259.167 43.134 C 259.167 43.252,258.359 43.487,256.958 43.777 C 256.706 43.829,256.500 43.938,256.500 44.019 C 256.500 44.100,256.350 44.167,256.167 44.167 C 255.983 44.167,255.833 44.242,255.833 44.333 C 255.833 44.425,255.650 44.500,255.427 44.500 C 255.203 44.500,254.973 44.575,254.917 44.667 C 254.860 44.758,254.668 44.833,254.490 44.833 C 254.312 44.833,254.167 44.908,254.167 45.000 C 254.167 45.092,254.054 45.167,253.917 45.167 C 253.779 45.167,253.667 45.242,253.667 45.333 C 253.667 45.425,253.517 45.500,253.333 45.500 C 253.150 45.500,253.000 45.575,253.000 45.667 C 253.000 45.758,252.879 45.833,252.731 45.833 C 252.387 45.833,250.833 46.674,250.833 46.860 C 250.833 46.937,250.718 47.000,250.576 47.000 C 250.435 47.000,250.158 47.150,249.962 47.333 C 249.765 47.517,249.505 47.667,249.385 47.667 C 249.265 47.667,249.167 47.725,249.167 47.797 C 249.167 47.869,248.923 48.070,248.625 48.243 C 248.327 48.416,248.046 48.605,248.000 48.662 C 247.954 48.719,247.654 48.946,247.333 49.167 C 246.733 49.580,246.430 49.880,246.005 50.484 C 245.870 50.676,245.673 50.833,245.567 50.833 C 245.461 50.833,244.990 51.265,244.520 51.792 C 244.050 52.319,243.366 53.061,242.999 53.441 C 242.633 53.821,242.333 54.187,242.333 54.255 C 242.333 54.322,242.201 54.499,242.039 54.647 C 241.878 54.795,241.596 55.217,241.414 55.583 C 241.232 55.950,240.952 56.371,240.792 56.520 C 240.631 56.668,240.500 56.912,240.500 57.061 C 240.500 57.211,240.425 57.333,240.333 57.333 C 240.242 57.333,240.167 57.477,240.167 57.653 C 240.167 57.828,240.107 57.997,240.033 58.028 C 239.792 58.128,238.847 60.276,238.734 60.978 C 238.674 61.357,238.559 61.667,238.479 61.667 C 238.399 61.667,238.333 61.892,238.333 62.167 C 238.333 62.442,238.258 62.667,238.167 62.667 C 238.075 62.667,238.000 62.914,238.000 63.217 C 238.000 63.519,237.932 63.838,237.849 63.925 C 237.652 64.132,237.496 65.346,237.394 67.458 L 237.312 69.167 246.073 69.167 C 254.633 69.167,254.833 69.159,254.833 68.843 C 254.833 68.665,254.908 68.473,255.000 68.417 C 255.092 68.360,255.167 68.098,255.167 67.833 C 255.167 67.569,255.242 67.307,255.333 67.250 C 255.425 67.193,255.500 66.964,255.500 66.740 C 255.500 66.516,255.575 66.333,255.667 66.333 C 255.758 66.333,255.836 66.202,255.839 66.042 C 255.842 65.881,255.954 65.604,256.089 65.426 C 256.223 65.249,256.333 64.967,256.333 64.801 C 256.333 64.636,256.408 64.500,256.500 64.500 C 256.592 64.500,256.667 64.384,256.667 64.242 C 256.667 64.101,256.835 63.810,257.042 63.596 C 257.248 63.381,257.717 62.849,258.083 62.412 C 259.108 61.190,259.602 60.746,260.375 60.347 C 260.627 60.217,260.833 60.048,260.833 59.972 C 260.833 59.896,260.929 59.833,261.047 59.833 C 261.164 59.833,261.368 59.683,261.500 59.500 C 261.632 59.317,261.874 59.167,262.037 59.167 C 262.200 59.167,262.333 59.092,262.333 59.000 C 262.333 58.908,262.483 58.833,262.667 58.833 C 262.850 58.833,263.000 58.758,263.000 58.667 C 263.000 58.575,263.131 58.500,263.292 58.499 C 263.452 58.498,263.798 58.386,264.061 58.249 C 264.323 58.112,264.680 58.000,264.852 58.000 C 265.025 58.000,265.167 57.925,265.167 57.833 C 265.167 57.742,265.387 57.667,265.657 57.667 C 265.926 57.667,266.193 57.592,266.250 57.500 C 266.307 57.408,266.569 57.333,266.833 57.333 C 267.098 57.333,267.360 57.258,267.417 57.167 C 267.473 57.075,267.890 57.000,268.343 57.000 C 268.796 57.000,269.167 56.925,269.167 56.833 C 269.167 56.728,270.386 56.667,272.490 56.667 C 274.526 56.667,275.854 56.731,275.917 56.833 C 275.973 56.925,276.465 57.000,277.010 57.000 C 277.559 57.000,278.000 57.074,278.000 57.167 C 278.000 57.258,278.258 57.333,278.573 57.333 C 278.889 57.333,279.193 57.408,279.250 57.500 C 279.307 57.592,279.569 57.667,279.833 57.667 C 280.098 57.667,280.349 57.724,280.392 57.794 C 280.435 57.863,280.965 58.070,281.569 58.252 C 282.172 58.434,282.667 58.640,282.667 58.708 C 282.667 58.777,282.817 58.833,283.000 58.833 C 283.183 58.833,283.333 58.908,283.333 59.000 C 283.333 59.092,283.446 59.167,283.583 59.167 C 283.721 59.167,283.833 59.229,283.833 59.305 C 283.833 59.381,284.037 59.550,284.285 59.680 C 284.752 59.924,285.605 60.634,286.227 61.295 C 286.423 61.502,286.827 61.931,287.125 62.247 C 287.423 62.564,287.667 62.883,287.667 62.958 C 287.667 63.032,287.817 63.201,288.000 63.333 C 288.183 63.465,288.333 63.707,288.333 63.870 C 288.333 64.033,288.390 64.167,288.458 64.167 C 288.527 64.167,288.730 64.654,288.910 65.250 C 289.090 65.846,289.296 66.333,289.369 66.333 C 289.441 66.333,289.500 66.633,289.500 67.000 C 289.500 67.367,289.575 67.667,289.667 67.667 C 289.758 67.667,289.833 68.079,289.833 68.583 C 289.833 69.087,289.908 69.500,290.000 69.500 C 290.107 69.500,290.167 71.028,290.167 73.750 L 290.167 78.000 289.667 78.000 C 289.392 78.000,289.167 78.066,289.167 78.147 C 289.167 78.228,286.841 78.349,283.998 78.417 C 281.155 78.484,278.788 78.606,278.738 78.687 C 278.688 78.767,277.526 78.833,276.157 78.833 C 274.608 78.833,273.667 78.896,273.667 79.000 C 273.667 79.104,272.670 79.167,271.010 79.167 C 269.418 79.167,268.312 79.234,268.250 79.333 C 268.190 79.430,267.279 79.500,266.083 79.500 C 264.887 79.500,263.976 79.570,263.917 79.667 C 263.860 79.758,263.218 79.833,262.490 79.833 C 261.719 79.833,261.167 79.903,261.167 80.000 C 261.167 80.094,260.694 80.167,260.083 80.167 C 259.472 80.167,259.000 80.239,259.000 80.333 C 259.000 80.425,258.592 80.500,258.093 80.500 C 257.594 80.500,257.144 80.569,257.092 80.653 C 257.040 80.736,256.435 80.858,255.746 80.922 C 255.058 80.987,254.454 81.106,254.404 81.186 C 254.355 81.267,254.093 81.333,253.823 81.333 C 253.554 81.333,253.333 81.408,253.333 81.500 C 253.333 81.592,253.075 81.667,252.760 81.667 C 252.444 81.667,252.140 81.742,252.083 81.833 C 252.027 81.925,251.797 82.000,251.573 82.000 C 251.350 82.000,251.167 82.075,251.167 82.167 C 251.167 82.258,250.942 82.333,250.667 82.333 C 250.392 82.333,250.167 82.408,250.167 82.500 C 250.167 82.592,249.979 82.667,249.750 82.667 C 249.521 82.667,249.333 82.742,249.333 82.833 C 249.333 82.925,249.183 83.000,249.000 83.000 C 248.817 83.000,248.667 83.075,248.667 83.167 C 248.667 83.258,248.480 83.333,248.251 83.333 C 247.776 83.333,246.500 83.848,246.500 84.039 C 246.500 84.109,246.350 84.167,246.167 84.167 C 245.983 84.167,245.833 84.242,245.833 84.333 C 245.833 84.425,245.683 84.500,245.500 84.500 C 245.317 84.500,245.167 84.575,245.167 84.667 C 245.167 84.758,245.068 84.833,244.948 84.833 C 244.828 84.833,244.569 84.983,244.372 85.167 C 244.175 85.350,243.936 85.500,243.840 85.500 C 243.745 85.500,243.667 85.575,243.667 85.667 C 243.667 85.758,243.528 85.833,243.359 85.833 C 243.190 85.833,242.834 86.021,242.568 86.250 C 242.301 86.479,242.008 86.667,241.917 86.668 C 241.825 86.669,241.573 86.894,241.356 87.168 C 241.140 87.442,240.893 87.667,240.809 87.667 C 240.634 87.667,240.066 88.155,239.284 88.978 C 238.990 89.286,238.506 89.790,238.208 90.097 C 237.910 90.404,237.667 90.703,237.667 90.761 C 237.667 90.819,237.442 91.076,237.167 91.333 C 236.892 91.590,236.667 91.920,236.667 92.067 C 236.667 92.213,236.606 92.333,236.532 92.333 C 236.458 92.333,236.265 92.633,236.103 93.000 C 235.942 93.367,235.740 93.667,235.655 93.667 C 235.570 93.667,235.500 93.779,235.500 93.917 C 235.500 94.054,235.425 94.167,235.333 94.167 C 235.242 94.167,235.167 94.317,235.167 94.500 C 235.167 94.683,235.092 94.833,235.000 94.833 C 234.908 94.833,234.833 94.981,234.833 95.162 C 234.833 95.342,234.683 95.757,234.500 96.083 C 234.317 96.410,234.167 96.825,234.167 97.005 C 234.167 97.186,234.098 97.333,234.013 97.333 C 233.929 97.333,233.808 97.821,233.744 98.417 C 233.680 99.013,233.562 99.500,233.481 99.500 C 233.400 99.500,233.333 99.837,233.333 100.250 C 233.333 100.662,233.258 101.000,233.167 101.000 C 233.067 101.000,233.000 101.636,233.000 102.573 C 233.000 103.443,232.925 104.193,232.833 104.250 C 232.742 104.307,232.667 104.944,232.667 105.667 C 232.667 106.389,232.742 107.027,232.833 107.083 C 232.925 107.140,233.000 107.891,233.000 108.760 C 233.000 109.698,233.067 110.333,233.167 110.333 C 233.258 110.333,233.333 110.708,233.333 111.167 C 233.333 111.625,233.399 112.000,233.478 112.000 C 233.558 112.000,233.674 112.448,233.736 112.995 C 233.798 113.542,233.920 114.034,234.008 114.088 C 234.095 114.142,234.167 114.365,234.167 114.583 C 234.167 114.802,234.242 115.027,234.333 115.083 C 234.425 115.140,234.500 115.369,234.500 115.593 C 234.500 115.817,234.575 116.000,234.667 116.000 C 234.758 116.000,234.833 116.150,234.833 116.333 C 234.833 116.517,234.908 116.667,235.000 116.667 C 235.092 116.667,235.167 116.817,235.167 117.000 C 235.167 117.183,235.228 117.333,235.302 117.333 C 235.377 117.333,235.541 117.596,235.667 117.917 C 235.793 118.237,235.957 118.500,236.031 118.500 C 236.106 118.500,236.167 118.645,236.167 118.821 C 236.167 118.998,236.260 119.242,236.375 119.363 C 236.490 119.484,236.690 119.790,236.820 120.042 C 236.950 120.294,237.119 120.500,237.195 120.500 C 237.271 120.500,237.333 120.576,237.333 120.668 C 237.333 120.761,237.558 121.072,237.833 121.360 C 238.108 121.647,238.333 121.953,238.333 122.040 C 238.333 122.227,241.639 125.500,241.828 125.500 C 241.899 125.500,242.245 125.763,242.595 126.083 C 242.945 126.404,243.295 126.667,243.373 126.667 C 243.450 126.667,243.671 126.813,243.863 126.992 C 244.055 127.170,244.461 127.435,244.765 127.579 C 245.070 127.724,245.364 127.915,245.419 128.004 C 245.475 128.094,245.665 128.167,245.843 128.167 C 246.021 128.167,246.167 128.242,246.167 128.333 C 246.167 128.425,246.279 128.500,246.417 128.500 C 246.554 128.500,246.667 128.575,246.667 128.667 C 246.667 128.758,246.817 128.833,247.000 128.833 C 247.183 128.833,247.333 128.908,247.333 129.000 C 247.333 129.092,247.447 129.167,247.585 129.167 C 247.724 129.167,248.192 129.324,248.627 129.517 C 250.361 130.285,251.546 130.667,252.196 130.667 C 252.455 130.667,252.667 130.742,252.667 130.833 C 252.667 130.925,252.925 131.000,253.240 131.000 C 253.556 131.000,253.860 131.075,253.917 131.167 C 253.973 131.258,254.353 131.333,254.760 131.333 C 255.167 131.333,255.500 131.408,255.500 131.500 C 255.500 131.592,255.908 131.667,256.407 131.667 C 256.906 131.667,257.360 131.742,257.417 131.833 C 257.476 131.930,258.387 132.000,259.583 132.000 C 260.779 132.000,261.690 132.070,261.750 132.167 C 261.807 132.258,262.257 132.333,262.750 132.333 C 263.243 132.333,263.693 132.258,263.750 132.167 C 263.809 132.071,264.693 132.000,265.833 132.000 C 266.974 132.000,267.857 131.929,267.917 131.833 C 267.973 131.742,268.428 131.667,268.927 131.667 C 269.425 131.667,269.833 131.592,269.833 131.500 C 269.833 131.408,270.129 131.333,270.490 131.333 C 270.851 131.333,271.193 131.258,271.250 131.167 C 271.307 131.075,271.574 131.000,271.843 131.000 C 272.113 131.000,272.333 130.925,272.333 130.833 C 272.333 130.742,272.545 130.667,272.804 130.667 C 273.454 130.667,274.639 130.285,276.373 129.517 C 276.808 129.324,277.276 129.167,277.415 129.167 C 277.553 129.167,277.667 129.092,277.667 129.000 C 277.667 128.908,277.817 128.833,278.000 128.833 C 278.183 128.833,278.333 128.758,278.333 128.667 C 278.333 128.575,278.446 128.500,278.583 128.500 C 278.721 128.500,278.833 128.425,278.833 128.333 C 278.833 128.242,278.934 128.167,279.058 128.167 C 279.289 128.167,280.352 127.685,280.500 127.513 C 280.546 127.460,280.778 127.316,281.015 127.194 C 281.253 127.072,281.703 126.754,282.015 126.486 C 282.328 126.219,282.677 126.001,282.792 126.000 C 282.906 126.000,283.000 125.941,283.000 125.869 C 283.000 125.797,283.232 125.601,283.516 125.434 C 284.071 125.106,288.500 120.765,288.500 120.548 C 288.501 120.476,288.725 120.154,289.000 119.833 C 289.275 119.513,289.499 119.184,289.500 119.103 C 289.500 119.022,289.637 118.834,289.804 118.686 C 289.972 118.538,290.215 118.173,290.345 117.875 C 290.794 116.846,290.833 117.362,290.833 124.333 L 290.833 131.333 299.833 131.333 L 308.833 131.333 308.823 99.208 C 308.813 68.679,308.775 65.896,308.334 63.917 C 308.232 63.458,308.107 62.840,308.056 62.542 C 308.005 62.244,307.897 62.000,307.815 62.000 C 307.733 62.000,307.667 61.779,307.667 61.510 C 307.667 61.240,307.592 60.973,307.500 60.917 C 307.408 60.860,307.333 60.668,307.333 60.490 C 307.333 60.312,307.258 60.167,307.167 60.167 C 307.075 60.167,307.000 59.942,307.000 59.667 C 307.000 59.392,306.925 59.167,306.833 59.167 C 306.742 59.167,306.667 59.017,306.667 58.833 C 306.667 58.650,306.595 58.500,306.508 58.500 C 306.420 58.500,306.299 58.237,306.239 57.917 C 306.179 57.596,306.063 57.333,305.981 57.333 C 305.900 57.333,305.833 57.183,305.833 57.000 C 305.833 56.817,305.777 56.667,305.707 56.667 C 305.638 56.667,305.475 56.423,305.345 56.125 C 305.215 55.827,304.972 55.462,304.804 55.314 C 304.637 55.166,304.500 54.949,304.500 54.833 C 304.500 54.717,304.367 54.501,304.204 54.353 C 304.041 54.205,303.776 53.875,303.614 53.621 C 303.153 52.895,302.256 51.949,299.776 49.571 C 299.386 49.198,298.827 48.750,298.534 48.577 C 298.240 48.403,298.000 48.203,298.000 48.131 C 298.000 48.059,297.887 48.000,297.750 48.000 C 297.612 48.000,297.500 47.925,297.500 47.833 C 297.500 47.742,297.422 47.667,297.326 47.667 C 297.231 47.667,297.005 47.529,296.824 47.360 C 296.643 47.191,296.289 46.948,296.039 46.819 C 295.788 46.689,295.546 46.546,295.500 46.500 C 295.291 46.291,294.340 45.833,294.113 45.833 C 293.975 45.833,293.836 45.777,293.806 45.708 C 293.713 45.501,292.324 44.833,291.984 44.833 C 291.810 44.833,291.666 44.777,291.665 44.708 C 291.664 44.539,290.839 44.167,290.467 44.167 C 290.302 44.167,290.167 44.108,290.167 44.037 C 290.167 43.881,288.383 43.333,287.877 43.333 C 287.680 43.333,287.473 43.258,287.417 43.167 C 287.360 43.075,287.093 43.000,286.823 43.000 C 286.554 43.000,286.333 42.925,286.333 42.833 C 286.333 42.742,286.075 42.667,285.760 42.667 C 285.444 42.667,285.140 42.592,285.083 42.500 C 285.027 42.408,284.647 42.333,284.240 42.333 C 283.833 42.333,283.500 42.258,283.500 42.167 C 283.500 42.075,283.087 42.000,282.583 42.000 C 282.079 42.000,281.667 41.925,281.667 41.833 C 281.667 41.739,281.198 41.667,280.593 41.667 C 280.003 41.667,279.481 41.603,279.433 41.526 C 279.385 41.449,278.049 41.335,276.465 41.274 C 274.880 41.213,273.396 41.134,273.167 41.099 C 272.938 41.065,272.337 41.096,271.833 41.168 M315.833 42.915 C 315.833 43.237,315.892 43.500,315.964 43.500 C 316.036 43.500,316.175 43.894,316.272 44.375 C 316.473 45.368,317.021 46.889,317.208 46.972 C 317.277 47.003,317.333 47.247,317.333 47.514 C 317.333 47.781,317.408 48.000,317.500 48.000 C 317.592 48.000,317.667 48.188,317.667 48.417 C 317.667 48.646,317.742 48.833,317.833 48.833 C 317.925 48.833,318.000 48.984,318.000 49.169 C 318.000 49.354,318.066 49.635,318.147 49.794 C 318.415 50.321,318.634 50.906,318.908 51.833 C 319.172 52.723,319.382 53.275,319.686 53.873 C 319.767 54.032,319.833 54.313,319.833 54.498 C 319.833 54.682,319.908 54.833,320.000 54.833 C 320.092 54.833,320.167 55.016,320.167 55.240 C 320.167 55.464,320.242 55.693,320.333 55.750 C 320.425 55.807,320.500 56.036,320.500 56.260 C 320.500 56.484,320.575 56.667,320.667 56.667 C 320.758 56.667,320.833 56.854,320.833 57.083 C 320.833 57.313,320.900 57.500,320.981 57.500 C 321.062 57.500,321.179 57.836,321.241 58.246 C 321.302 58.656,321.423 59.036,321.510 59.089 C 321.596 59.143,321.667 59.333,321.667 59.512 C 321.667 59.691,321.733 59.968,321.814 60.127 C 321.895 60.286,322.054 60.642,322.167 60.917 C 322.280 61.192,322.438 61.547,322.519 61.706 C 322.600 61.865,322.667 62.146,322.667 62.331 C 322.667 62.516,322.742 62.667,322.833 62.667 C 322.925 62.667,323.000 62.854,323.000 63.083 C 323.000 63.313,323.075 63.500,323.167 63.500 C 323.258 63.500,323.333 63.725,323.333 64.000 C 323.333 64.275,323.400 64.500,323.481 64.500 C 323.562 64.500,323.679 64.837,323.741 65.250 C 323.803 65.662,323.924 66.000,324.010 66.000 C 324.096 66.000,324.167 66.225,324.167 66.500 C 324.167 66.775,324.242 67.000,324.333 67.000 C 324.425 67.000,324.500 67.151,324.500 67.336 C 324.500 67.520,324.575 67.820,324.667 68.002 C 324.758 68.184,324.908 68.482,325.000 68.664 C 325.092 68.846,325.167 69.109,325.167 69.248 C 325.167 69.386,325.242 69.500,325.333 69.500 C 325.425 69.500,325.500 69.725,325.500 70.000 C 325.500 70.275,325.575 70.500,325.667 70.500 C 325.758 70.500,325.833 70.688,325.833 70.917 C 325.833 71.146,325.908 71.333,326.000 71.333 C 326.092 71.333,326.167 71.540,326.168 71.792 C 326.168 72.044,326.281 72.465,326.418 72.727 C 326.555 72.990,326.667 73.346,326.667 73.519 C 326.667 73.692,326.742 73.833,326.833 73.833 C 326.925 73.833,327.000 74.058,327.000 74.333 C 327.000 74.608,327.075 74.833,327.167 74.833 C 327.258 74.833,327.333 75.021,327.333 75.250 C 327.333 75.479,327.408 75.667,327.500 75.667 C 327.592 75.667,327.667 75.812,327.667 75.990 C 327.667 76.168,327.742 76.360,327.833 76.417 C 327.925 76.473,328.000 76.703,328.000 76.927 C 328.000 77.150,328.075 77.333,328.167 77.333 C 328.258 77.333,328.333 77.521,328.333 77.750 C 328.333 77.979,328.399 78.167,328.479 78.167 C 328.558 78.167,328.673 78.539,328.733 78.993 C 328.794 79.448,328.916 79.865,329.005 79.920 C 329.094 79.975,329.167 80.165,329.167 80.343 C 329.167 80.521,329.242 80.667,329.333 80.667 C 329.425 80.667,329.500 80.892,329.500 81.167 C 329.500 81.442,329.575 81.667,329.667 81.667 C 329.758 81.667,329.833 81.850,329.833 82.073 C 329.833 82.297,329.908 82.527,330.000 82.583 C 330.092 82.640,330.167 82.869,330.167 83.093 C 330.167 83.317,330.242 83.500,330.333 83.500 C 330.425 83.500,330.500 83.650,330.500 83.833 C 330.500 84.017,330.575 84.167,330.667 84.167 C 330.758 84.167,330.833 84.392,330.833 84.667 C 330.833 84.942,330.908 85.167,331.000 85.167 C 331.092 85.167,331.167 85.294,331.167 85.450 C 331.167 85.901,331.727 87.667,331.870 87.667 C 331.942 87.667,332.000 87.854,332.000 88.083 C 332.000 88.313,332.075 88.500,332.167 88.500 C 332.258 88.500,332.333 88.725,332.333 89.000 C 332.333 89.275,332.408 89.500,332.500 89.500 C 332.592 89.500,332.667 89.688,332.667 89.917 C 332.667 90.146,332.742 90.333,332.833 90.333 C 332.925 90.333,333.000 90.516,333.000 90.740 C 333.000 90.964,333.075 91.193,333.167 91.250 C 333.258 91.307,333.333 91.499,333.333 91.677 C 333.333 91.854,333.408 92.000,333.500 92.000 C 333.592 92.000,333.667 92.186,333.667 92.413 C 333.667 92.865,334.204 94.425,334.686 95.373 C 334.767 95.532,334.833 95.813,334.833 95.998 C 334.833 96.182,334.908 96.333,335.000 96.333 C 335.092 96.333,335.167 96.558,335.167 96.833 C 335.167 97.108,335.242 97.333,335.333 97.333 C 335.425 97.333,335.500 97.521,335.500 97.750 C 335.500 97.979,335.575 98.167,335.667 98.167 C 335.758 98.167,335.833 98.312,335.833 98.490 C 335.833 98.668,335.900 98.855,335.981 98.905 C 336.062 98.955,336.179 99.333,336.240 99.744 C 336.302 100.156,336.423 100.536,336.510 100.589 C 336.596 100.643,336.667 100.833,336.667 101.012 C 336.667 101.191,336.742 101.487,336.833 101.669 C 336.925 101.851,337.075 102.149,337.167 102.331 C 337.258 102.513,337.333 102.776,337.333 102.914 C 337.333 103.053,337.408 103.167,337.500 103.167 C 337.592 103.167,337.667 103.392,337.667 103.667 C 337.667 103.942,337.742 104.167,337.833 104.167 C 337.925 104.167,338.000 104.392,338.000 104.667 C 338.000 104.942,338.075 105.167,338.167 105.167 C 338.258 105.167,338.333 105.354,338.333 105.583 C 338.333 105.813,338.404 106.000,338.490 106.000 C 338.576 106.000,338.697 106.338,338.759 106.752 C 338.821 107.166,338.938 107.545,339.019 107.595 C 339.100 107.645,339.167 107.869,339.167 108.093 C 339.167 108.317,339.242 108.500,339.333 108.500 C 339.425 108.500,339.500 108.683,339.500 108.907 C 339.500 109.131,339.575 109.360,339.667 109.417 C 339.758 109.473,339.833 109.665,339.833 109.843 C 339.833 110.021,339.908 110.167,340.000 110.167 C 340.092 110.167,340.167 110.354,340.167 110.583 C 340.167 110.813,340.242 111.000,340.333 111.000 C 340.425 111.000,340.500 111.225,340.500 111.500 C 340.500 111.775,340.575 112.000,340.667 112.000 C 340.758 112.000,340.833 112.188,340.833 112.417 C 340.833 112.646,340.900 112.833,340.981 112.833 C 341.062 112.833,341.179 113.169,341.241 113.579 C 341.302 113.990,341.423 114.369,341.510 114.423 C 341.596 114.476,341.667 114.703,341.667 114.927 C 341.667 115.150,341.742 115.333,341.833 115.333 C 341.925 115.333,342.000 115.558,342.000 115.833 C 342.000 116.108,342.075 116.333,342.167 116.333 C 342.258 116.333,342.333 116.521,342.333 116.750 C 342.333 116.979,342.408 117.167,342.500 117.167 C 342.592 117.167,342.667 117.312,342.667 117.490 C 342.667 117.668,342.742 117.860,342.833 117.917 C 342.925 117.973,343.000 118.203,343.000 118.427 C 343.000 118.650,343.075 118.833,343.167 118.833 C 343.258 118.833,343.333 119.058,343.333 119.333 C 343.333 119.608,343.400 119.833,343.481 119.833 C 343.562 119.833,343.679 120.171,343.741 120.583 C 343.803 120.996,343.924 121.333,344.010 121.333 C 344.096 121.333,344.167 121.558,344.167 121.833 C 344.167 122.108,344.242 122.333,344.333 122.333 C 344.425 122.333,344.500 122.521,344.500 122.750 C 344.500 122.979,344.575 123.167,344.667 123.167 C 344.758 123.167,344.833 123.392,344.833 123.667 C 344.833 123.942,344.908 124.167,345.000 124.167 C 345.092 124.167,345.167 124.312,345.167 124.490 C 345.167 124.668,345.242 124.860,345.333 124.917 C 345.425 124.973,345.500 125.165,345.500 125.343 C 345.500 125.521,345.575 125.667,345.667 125.667 C 345.758 125.667,345.833 125.892,345.833 126.167 C 345.833 126.442,345.908 126.667,346.000 126.667 C 346.092 126.667,346.167 126.794,346.167 126.950 C 346.167 127.401,346.727 129.167,346.870 129.167 C 346.942 129.167,347.000 129.350,347.000 129.573 C 347.000 129.797,347.075 130.027,347.167 130.083 C 347.258 130.140,347.333 130.363,347.333 130.579 C 347.333 130.795,347.427 131.006,347.542 131.048 C 347.708 131.108,347.708 131.194,347.542 131.476 C 347.427 131.670,347.333 132.017,347.333 132.248 C 347.333 132.478,347.258 132.667,347.167 132.667 C 347.075 132.667,347.000 132.850,347.000 133.073 C 347.000 133.297,346.925 133.527,346.833 133.583 C 346.742 133.640,346.667 133.865,346.667 134.083 C 346.667 134.302,346.599 134.522,346.516 134.574 C 346.433 134.625,346.313 135.042,346.250 135.500 C 346.187 135.958,346.067 136.333,345.984 136.333 C 345.901 136.333,345.833 136.558,345.833 136.833 C 345.833 137.108,345.758 137.333,345.667 137.333 C 345.575 137.333,345.500 137.521,345.500 137.750 C 345.500 137.979,345.425 138.167,345.333 138.167 C 345.242 138.167,345.167 138.312,345.167 138.490 C 345.167 138.668,345.092 138.860,345.000 138.917 C 344.908 138.973,344.833 139.203,344.833 139.427 C 344.833 139.650,344.758 139.833,344.667 139.833 C 344.575 139.833,344.500 139.983,344.500 140.167 C 344.500 140.350,344.443 140.500,344.374 140.500 C 344.305 140.500,344.145 140.744,344.018 141.042 C 343.489 142.290,343.287 142.667,343.148 142.667 C 343.066 142.667,343.000 142.749,343.000 142.850 C 343.000 142.951,342.775 143.243,342.500 143.500 C 342.225 143.757,342.000 144.043,342.000 144.135 C 342.000 144.355,340.561 145.833,340.347 145.833 C 340.256 145.833,339.994 146.021,339.765 146.250 C 339.536 146.479,339.270 146.667,339.174 146.667 C 339.078 146.667,339.000 146.742,339.000 146.833 C 339.000 146.925,338.850 147.000,338.667 147.000 C 338.483 147.000,338.333 147.057,338.333 147.126 C 338.333 147.274,337.765 147.520,336.500 147.918 C 335.996 148.077,335.453 148.273,335.294 148.353 C 335.135 148.434,334.704 148.500,334.336 148.500 C 333.968 148.500,333.667 148.575,333.667 148.667 C 333.667 148.894,325.890 148.894,325.750 148.667 C 325.693 148.575,325.389 148.500,325.073 148.500 L 324.500 148.500 324.500 156.153 L 324.500 163.807 325.581 163.923 C 327.485 164.126,340.293 163.941,340.528 163.706 C 340.641 163.593,341.093 163.500,341.533 163.500 C 341.973 163.500,342.333 163.425,342.333 163.333 C 342.333 163.242,342.559 163.167,342.836 163.167 C 343.112 163.167,343.468 163.100,343.627 163.018 C 343.882 162.886,344.315 162.781,346.208 162.390 C 346.460 162.338,346.667 162.229,346.667 162.148 C 346.667 162.066,346.817 162.000,347.000 162.000 C 347.183 162.000,347.333 161.925,347.333 161.833 C 347.333 161.742,347.468 161.667,347.633 161.667 C 348.006 161.667,348.830 161.294,348.832 161.125 C 348.833 161.056,348.983 161.000,349.167 161.000 C 349.350 161.000,349.500 160.925,349.500 160.833 C 349.500 160.742,349.650 160.667,349.833 160.667 C 350.017 160.667,350.167 160.606,350.167 160.532 C 350.167 160.458,350.451 160.272,350.798 160.119 C 351.146 159.966,351.592 159.689,351.791 159.503 C 351.990 159.318,352.222 159.167,352.306 159.167 C 352.391 159.167,352.769 158.867,353.147 158.500 C 353.525 158.133,353.898 157.833,353.977 157.833 C 354.202 157.833,357.333 154.643,357.333 154.414 C 357.333 154.352,357.544 154.102,357.802 153.859 C 358.060 153.616,358.413 153.173,358.588 152.875 C 358.762 152.577,358.964 152.333,359.036 152.333 C 359.108 152.333,359.167 152.200,359.167 152.037 C 359.167 151.874,359.317 151.632,359.500 151.500 C 359.683 151.368,359.833 151.143,359.833 151.000 C 359.833 150.857,359.983 150.632,360.167 150.500 C 360.350 150.368,360.500 150.170,360.500 150.060 C 360.500 149.951,360.556 149.836,360.625 149.806 C 360.822 149.718,361.333 148.727,361.333 148.433 C 361.333 148.286,361.408 148.167,361.500 148.167 C 361.592 148.167,361.667 148.054,361.667 147.917 C 361.667 147.779,361.742 147.667,361.833 147.667 C 361.925 147.667,362.000 147.517,362.000 147.333 C 362.000 147.150,362.056 146.999,362.125 146.999 C 362.271 146.997,362.667 146.193,362.667 145.897 C 362.667 145.786,362.726 145.669,362.798 145.639 C 362.988 145.558,363.833 143.766,363.833 143.442 C 363.833 143.290,363.908 143.167,364.000 143.167 C 364.092 143.167,364.167 143.017,364.167 142.833 C 364.167 142.650,364.242 142.500,364.333 142.500 C 364.425 142.500,364.500 142.313,364.500 142.083 C 364.500 141.854,364.575 141.667,364.667 141.667 C 364.758 141.667,364.833 141.517,364.833 141.333 C 364.833 141.150,364.908 141.000,365.000 141.000 C 365.092 141.000,365.167 140.813,365.167 140.583 C 365.167 140.354,365.242 140.167,365.333 140.167 C 365.425 140.167,365.500 140.021,365.500 139.843 C 365.500 139.665,365.575 139.473,365.667 139.417 C 365.758 139.360,365.833 139.131,365.833 138.907 C 365.833 138.683,365.904 138.500,365.990 138.500 C 366.076 138.500,366.197 138.162,366.259 137.750 C 366.321 137.337,366.438 137.000,366.519 137.000 C 366.600 137.000,366.667 136.775,366.667 136.500 C 366.667 136.225,366.742 136.000,366.833 136.000 C 366.925 136.000,367.000 135.886,367.000 135.748 C 367.000 135.609,367.075 135.346,367.167 135.164 C 367.258 134.982,367.408 134.684,367.500 134.502 C 367.592 134.320,367.667 134.020,367.667 133.836 C 367.667 133.651,367.742 133.500,367.833 133.500 C 367.925 133.500,368.000 133.317,368.000 133.093 C 368.000 132.869,368.075 132.640,368.167 132.583 C 368.258 132.527,368.333 132.302,368.333 132.083 C 368.333 131.865,368.402 131.644,368.485 131.592 C 368.569 131.541,368.688 131.199,368.750 130.833 C 368.812 130.468,368.931 130.126,369.015 130.074 C 369.098 130.023,369.167 129.797,369.167 129.573 C 369.167 129.350,369.242 129.167,369.333 129.167 C 369.425 129.167,369.500 128.942,369.500 128.667 C 369.500 128.392,369.575 128.167,369.667 128.167 C 369.758 128.167,369.833 127.979,369.833 127.750 C 369.833 127.521,369.908 127.333,370.000 127.333 C 370.092 127.333,370.167 127.182,370.167 126.998 C 370.167 126.813,370.233 126.532,370.314 126.373 C 370.747 125.521,371.333 123.817,371.333 123.409 C 371.333 123.273,371.408 123.013,371.500 122.831 C 371.592 122.649,371.742 122.351,371.833 122.169 C 371.925 121.987,372.000 121.724,372.000 121.586 C 372.000 121.447,372.075 121.333,372.167 121.333 C 372.258 121.333,372.333 121.108,372.333 120.833 C 372.333 120.558,372.408 120.333,372.500 120.333 C 372.592 120.333,372.667 120.146,372.667 119.917 C 372.667 119.688,372.742 119.500,372.833 119.500 C 372.925 119.500,373.000 119.275,373.000 119.000 C 373.000 118.725,373.075 118.500,373.167 118.500 C 373.258 118.500,373.333 118.317,373.333 118.093 C 373.333 117.869,373.404 117.643,373.490 117.589 C 373.577 117.536,373.698 117.156,373.759 116.746 C 373.821 116.336,373.938 116.000,374.019 116.000 C 374.100 116.000,374.167 115.813,374.167 115.583 C 374.167 115.354,374.242 115.167,374.333 115.167 C 374.425 115.167,374.500 114.942,374.500 114.667 C 374.500 114.392,374.575 114.167,374.667 114.167 C 374.758 114.167,374.833 113.942,374.833 113.667 C 374.833 113.392,374.908 113.167,375.000 113.167 C 375.092 113.167,375.167 113.053,375.167 112.914 C 375.167 112.776,375.253 112.494,375.359 112.289 C 375.773 111.489,375.833 111.327,375.833 111.012 C 375.833 110.833,375.906 110.641,375.995 110.586 C 376.084 110.531,376.206 110.114,376.267 109.660 C 376.327 109.205,376.442 108.833,376.521 108.833 C 376.601 108.833,376.667 108.683,376.667 108.500 C 376.667 108.317,376.742 108.167,376.833 108.167 C 376.925 108.167,377.000 107.979,377.000 107.750 C 377.000 107.521,377.075 107.333,377.167 107.333 C 377.258 107.333,377.333 107.108,377.333 106.833 C 377.333 106.558,377.408 106.333,377.500 106.333 C 377.592 106.333,377.667 106.150,377.667 105.927 C 377.667 105.703,377.742 105.473,377.833 105.417 C 377.925 105.360,378.000 105.131,378.000 104.907 C 378.000 104.683,378.058 104.500,378.130 104.500 C 378.273 104.500,378.833 102.734,378.833 102.283 C 378.833 102.128,378.908 102.000,379.000 102.000 C 379.092 102.000,379.167 101.775,379.167 101.500 C 379.167 101.225,379.242 101.000,379.333 101.000 C 379.425 101.000,379.500 100.813,379.500 100.583 C 379.500 100.354,379.575 100.167,379.667 100.167 C 379.758 100.167,379.833 100.021,379.833 99.843 C 379.833 99.665,379.908 99.473,380.000 99.417 C 380.092 99.360,380.167 99.131,380.167 98.907 C 380.167 98.683,380.242 98.500,380.333 98.500 C 380.425 98.500,380.500 98.317,380.500 98.093 C 380.500 97.869,380.575 97.640,380.667 97.583 C 380.758 97.527,380.833 97.302,380.833 97.083 C 380.833 96.865,380.900 96.645,380.981 96.595 C 381.062 96.545,381.179 96.166,381.241 95.752 C 381.303 95.338,381.424 95.000,381.510 95.000 C 381.596 95.000,381.667 94.813,381.667 94.583 C 381.667 94.354,381.742 94.167,381.833 94.167 C 381.925 94.167,382.000 93.942,382.000 93.667 C 382.000 93.392,382.075 93.167,382.167 93.167 C 382.258 93.167,382.333 92.979,382.333 92.750 C 382.333 92.521,382.408 92.333,382.500 92.333 C 382.592 92.333,382.667 92.108,382.667 91.833 C 382.667 91.558,382.742 91.333,382.833 91.333 C 382.925 91.333,383.000 91.197,383.000 91.031 C 383.000 90.865,383.148 90.423,383.328 90.049 C 383.509 89.676,383.706 89.061,383.766 88.685 C 383.827 88.308,383.941 88.000,384.021 88.000 C 384.101 88.000,384.167 87.775,384.167 87.500 C 384.167 87.225,384.242 87.000,384.333 87.000 C 384.425 87.000,384.500 86.817,384.500 86.593 C 384.500 86.369,384.575 86.140,384.667 86.083 C 384.758 86.027,384.833 85.835,384.833 85.657 C 384.833 85.479,384.908 85.333,385.000 85.333 C 385.092 85.333,385.167 85.146,385.167 84.917 C 385.167 84.688,385.242 84.500,385.333 84.500 C 385.425 84.500,385.500 84.275,385.500 84.000 C 385.500 83.725,385.575 83.500,385.667 83.500 C 385.758 83.500,385.833 83.317,385.833 83.093 C 385.833 82.869,385.900 82.645,385.981 82.595 C 386.062 82.545,386.179 82.166,386.241 81.752 C 386.303 81.338,386.424 81.000,386.510 81.000 C 386.596 81.000,386.667 80.813,386.667 80.583 C 386.667 80.354,386.742 80.167,386.833 80.167 C 386.925 80.167,387.000 79.942,387.000 79.667 C 387.000 79.392,387.075 79.167,387.167 79.167 C 387.258 79.167,387.333 78.942,387.333 78.667 C 387.333 78.392,387.408 78.167,387.500 78.167 C 387.592 78.167,387.667 77.979,387.667 77.750 C 387.667 77.521,387.728 77.333,387.803 77.333 C 387.878 77.333,388.043 76.954,388.170 76.489 C 388.296 76.025,388.457 75.610,388.528 75.566 C 388.599 75.522,388.706 75.114,388.767 74.660 C 388.827 74.205,388.942 73.833,389.021 73.833 C 389.101 73.833,389.167 73.646,389.167 73.417 C 389.167 73.188,389.242 73.000,389.333 73.000 C 389.425 73.000,389.500 72.854,389.500 72.677 C 389.500 72.499,389.575 72.307,389.667 72.250 C 389.758 72.193,389.833 71.964,389.833 71.740 C 389.833 71.516,389.908 71.333,390.000 71.333 C 390.092 71.333,390.167 71.150,390.167 70.927 C 390.167 70.703,390.242 70.473,390.333 70.417 C 390.425 70.360,390.500 70.131,390.500 69.907 C 390.500 69.683,390.575 69.500,390.667 69.500 C 390.758 69.500,390.833 69.275,390.833 69.000 C 390.833 68.725,390.904 68.500,390.990 68.500 C 391.076 68.500,391.197 68.162,391.259 67.750 C 391.321 67.337,391.438 67.000,391.519 67.000 C 391.600 67.000,391.667 66.775,391.667 66.500 C 391.667 66.225,391.742 66.000,391.833 66.000 C 391.925 66.000,392.000 65.813,392.000 65.583 C 392.000 65.354,392.075 65.167,392.167 65.167 C 392.258 65.167,392.333 64.942,392.333 64.667 C 392.333 64.392,392.408 64.167,392.500 64.167 C 392.592 64.167,392.667 64.053,392.667 63.914 C 392.667 63.776,392.742 63.513,392.833 63.331 C 392.925 63.149,393.075 62.851,393.167 62.669 C 393.258 62.487,393.333 62.191,393.333 62.012 C 393.333 61.833,393.401 61.644,393.484 61.593 C 393.567 61.542,393.687 61.125,393.750 60.666 C 393.813 60.208,393.933 59.833,394.016 59.833 C 394.099 59.833,394.167 59.688,394.167 59.510 C 394.167 59.332,394.242 59.140,394.333 59.083 C 394.425 59.027,394.500 58.797,394.500 58.573 C 394.500 58.350,394.575 58.167,394.667 58.167 C 394.758 58.167,394.833 57.979,394.833 57.750 C 394.833 57.521,394.908 57.333,395.000 57.333 C 395.092 57.333,395.167 57.108,395.167 56.833 C 395.167 56.558,395.242 56.333,395.333 56.333 C 395.425 56.333,395.500 56.182,395.500 55.998 C 395.500 55.813,395.575 55.513,395.667 55.331 C 395.758 55.149,395.907 54.853,395.997 54.674 C 396.087 54.495,396.209 54.045,396.268 53.674 C 396.327 53.303,396.441 53.000,396.521 53.000 C 396.601 53.000,396.667 52.775,396.667 52.500 C 396.667 52.225,396.742 52.000,396.833 52.000 C 396.925 52.000,397.000 51.775,397.000 51.500 C 397.000 51.225,397.075 51.000,397.167 51.000 C 397.258 51.000,397.333 50.813,397.333 50.583 C 397.333 50.354,397.408 50.167,397.500 50.167 C 397.592 50.167,397.667 50.021,397.667 49.843 C 397.667 49.665,397.742 49.473,397.833 49.417 C 397.925 49.360,398.000 49.131,398.000 48.907 C 398.000 48.683,398.075 48.500,398.167 48.500 C 398.258 48.500,398.333 48.317,398.333 48.093 C 398.333 47.869,398.401 47.644,398.484 47.593 C 398.567 47.542,398.687 47.125,398.750 46.666 C 398.813 46.208,398.933 45.833,399.016 45.833 C 399.099 45.833,399.167 45.688,399.167 45.510 C 399.167 45.332,399.242 45.140,399.333 45.083 C 399.425 45.027,399.500 44.804,399.500 44.587 C 399.500 44.371,399.570 44.169,399.656 44.139 C 399.742 44.108,399.865 43.690,399.928 43.208 L 400.043 42.333 390.105 42.333 L 380.167 42.333 380.167 42.823 C 380.167 43.093,380.092 43.360,380.000 43.417 C 379.908 43.473,379.833 43.740,379.833 44.010 C 379.833 44.279,379.758 44.500,379.667 44.500 C 379.575 44.500,379.500 44.725,379.500 45.000 C 379.500 45.275,379.425 45.500,379.333 45.500 C 379.242 45.500,379.166 45.631,379.164 45.792 C 379.163 45.952,379.054 46.383,378.921 46.750 C 378.789 47.117,378.678 47.660,378.674 47.958 C 378.670 48.256,378.592 48.500,378.500 48.500 C 378.408 48.500,378.333 48.725,378.333 49.000 C 378.333 49.275,378.258 49.500,378.167 49.500 C 378.075 49.500,378.000 49.725,378.000 50.000 C 378.000 50.275,377.925 50.500,377.833 50.500 C 377.742 50.500,377.667 50.683,377.667 50.907 C 377.667 51.131,377.592 51.360,377.500 51.417 C 377.408 51.473,377.333 51.736,377.333 52.000 C 377.333 52.264,377.258 52.527,377.167 52.583 C 377.075 52.640,377.000 52.865,377.000 53.083 C 377.000 53.302,376.925 53.527,376.833 53.583 C 376.742 53.640,376.667 53.865,376.667 54.083 C 376.667 54.302,376.597 54.523,376.512 54.576 C 376.426 54.629,376.305 55.083,376.242 55.586 C 376.180 56.089,376.062 56.500,375.981 56.500 C 375.900 56.500,375.833 56.762,375.833 57.083 C 375.833 57.404,375.758 57.667,375.667 57.667 C 375.575 57.667,375.500 57.850,375.500 58.073 C 375.500 58.297,375.425 58.527,375.333 58.583 C 375.242 58.640,375.167 58.869,375.167 59.093 C 375.167 59.317,375.092 59.500,375.000 59.500 C 374.908 59.500,374.833 59.721,374.833 59.990 C 374.833 60.260,374.758 60.527,374.667 60.583 C 374.575 60.640,374.500 60.907,374.500 61.177 C 374.500 61.446,374.425 61.667,374.333 61.667 C 374.242 61.667,374.167 61.887,374.167 62.157 C 374.167 62.426,374.099 62.689,374.016 62.740 C 373.933 62.792,373.813 63.209,373.750 63.667 C 373.687 64.125,373.567 64.500,373.484 64.500 C 373.401 64.500,373.333 64.721,373.333 64.990 C 373.333 65.260,373.258 65.527,373.167 65.583 C 373.075 65.640,373.000 65.907,373.000 66.177 C 373.000 66.446,372.925 66.667,372.833 66.667 C 372.742 66.667,372.667 66.892,372.667 67.167 C 372.667 67.442,372.592 67.667,372.500 67.667 C 372.408 67.667,372.333 67.892,372.333 68.167 C 372.333 68.442,372.258 68.667,372.167 68.667 C 372.075 68.667,372.000 68.887,372.000 69.157 C 372.000 69.426,371.925 69.693,371.833 69.750 C 371.742 69.807,371.667 70.074,371.667 70.343 C 371.667 70.613,371.597 70.833,371.512 70.833 C 371.427 70.833,371.306 71.246,371.243 71.750 C 371.180 72.254,371.062 72.667,370.981 72.667 C 370.900 72.667,370.833 72.892,370.833 73.167 C 370.833 73.442,370.758 73.667,370.667 73.667 C 370.575 73.667,370.500 73.887,370.500 74.157 C 370.500 74.426,370.425 74.693,370.333 74.750 C 370.242 74.807,370.167 75.074,370.167 75.343 C 370.167 75.613,370.092 75.833,370.000 75.833 C 369.908 75.833,369.833 76.021,369.833 76.250 C 369.833 76.479,369.758 76.667,369.667 76.667 C 369.575 76.667,369.500 76.855,369.500 77.086 C 369.500 77.316,369.434 77.635,369.354 77.794 C 369.101 78.293,368.840 79.236,368.729 80.049 C 368.670 80.481,368.557 80.833,368.477 80.833 C 368.398 80.833,368.333 81.021,368.333 81.250 C 368.333 81.479,368.258 81.667,368.167 81.667 C 368.075 81.667,368.000 81.887,368.000 82.157 C 368.000 82.426,367.925 82.693,367.833 82.750 C 367.742 82.807,367.667 83.074,367.667 83.343 C 367.667 83.613,367.592 83.833,367.500 83.833 C 367.408 83.833,367.333 84.058,367.333 84.333 C 367.333 84.608,367.258 84.833,367.167 84.833 C 367.075 84.833,367.000 85.058,367.000 85.333 C 367.000 85.608,366.934 85.833,366.852 85.833 C 366.700 85.833,366.654 86.004,366.317 87.792 C 366.209 88.365,366.056 88.833,365.977 88.833 C 365.898 88.833,365.833 89.058,365.833 89.333 C 365.833 89.608,365.758 89.833,365.667 89.833 C 365.575 89.833,365.500 90.058,365.500 90.333 C 365.500 90.608,365.425 90.833,365.333 90.833 C 365.242 90.833,365.167 91.054,365.167 91.323 C 365.167 91.593,365.092 91.860,365.000 91.917 C 364.908 91.973,364.833 92.240,364.833 92.510 C 364.833 92.779,364.758 93.000,364.667 93.000 C 364.575 93.000,364.500 93.151,364.500 93.336 C 364.500 93.520,364.432 93.801,364.349 93.961 C 364.080 94.475,363.667 96.025,363.667 96.519 C 363.667 96.784,363.592 97.000,363.500 97.000 C 363.408 97.000,363.333 97.225,363.333 97.500 C 363.333 97.775,363.258 98.000,363.167 98.000 C 363.075 98.000,363.000 98.188,363.000 98.417 C 363.000 98.646,362.925 98.833,362.833 98.833 C 362.742 98.833,362.667 99.054,362.667 99.323 C 362.667 99.593,362.592 99.860,362.500 99.917 C 362.408 99.973,362.333 100.240,362.333 100.510 C 362.333 100.779,362.258 101.000,362.167 101.000 C 362.075 101.000,362.000 101.225,362.000 101.500 C 362.000 101.775,361.925 102.000,361.833 102.000 C 361.742 102.000,361.667 102.221,361.667 102.490 C 361.667 102.760,361.596 103.024,361.510 103.077 C 361.423 103.131,361.307 103.529,361.251 103.962 C 361.195 104.395,361.078 104.880,360.991 105.039 C 360.904 105.199,360.833 105.480,360.833 105.664 C 360.833 105.849,360.758 106.000,360.667 106.000 C 360.575 106.000,360.500 106.225,360.500 106.500 C 360.500 106.775,360.425 107.000,360.333 107.000 C 360.242 107.000,360.167 107.225,360.167 107.500 C 360.167 107.775,360.092 108.000,360.000 108.000 C 359.908 108.000,359.833 108.221,359.833 108.490 C 359.833 108.760,359.758 109.027,359.667 109.083 C 359.575 109.140,359.500 109.407,359.500 109.677 C 359.500 109.946,359.425 110.167,359.333 110.167 C 359.242 110.167,359.167 110.350,359.167 110.573 C 359.167 110.797,359.097 111.023,359.012 111.076 C 358.926 111.129,358.805 111.583,358.742 112.086 C 358.680 112.589,358.562 113.000,358.481 113.000 C 358.400 113.000,358.333 113.188,358.333 113.417 C 358.333 113.646,358.258 113.833,358.167 113.833 C 358.075 113.833,358.000 113.707,358.000 113.553 C 358.000 113.240,357.703 112.236,357.480 111.794 C 357.399 111.635,357.333 111.358,357.333 111.179 C 357.333 111.000,357.258 110.807,357.167 110.750 C 357.075 110.693,357.000 110.464,357.000 110.240 C 357.000 110.016,356.925 109.833,356.833 109.833 C 356.742 109.833,356.667 109.613,356.667 109.343 C 356.667 109.074,356.592 108.807,356.500 108.750 C 356.408 108.693,356.333 108.473,356.333 108.259 C 356.333 107.840,355.897 106.265,355.651 105.794 C 355.568 105.635,355.500 105.354,355.500 105.169 C 355.500 104.984,355.425 104.833,355.333 104.833 C 355.242 104.833,355.167 104.571,355.167 104.250 C 355.167 103.929,355.092 103.667,355.000 103.667 C 354.908 103.667,354.833 103.442,354.833 103.167 C 354.833 102.892,354.758 102.667,354.667 102.667 C 354.575 102.667,354.500 102.442,354.500 102.167 C 354.500 101.892,354.425 101.667,354.333 101.667 C 354.242 101.667,354.167 101.484,354.167 101.260 C 354.167 101.036,354.100 100.812,354.019 100.762 C 353.939 100.712,353.821 100.259,353.758 99.755 C 353.695 99.251,353.574 98.795,353.488 98.743 C 353.403 98.690,353.333 98.426,353.333 98.157 C 353.333 97.887,353.258 97.667,353.167 97.667 C 353.075 97.667,353.000 97.442,353.000 97.167 C 353.000 96.892,352.925 96.667,352.833 96.667 C 352.742 96.667,352.667 96.446,352.667 96.177 C 352.667 95.907,352.592 95.640,352.500 95.583 C 352.408 95.527,352.333 95.260,352.333 94.990 C 352.333 94.721,352.258 94.500,352.167 94.500 C 352.075 94.500,352.000 94.275,352.000 94.000 C 352.000 93.725,351.925 93.500,351.833 93.500 C 351.742 93.500,351.667 93.313,351.667 93.083 C 351.667 92.854,351.602 92.667,351.523 92.667 C 351.443 92.667,351.330 92.314,351.271 91.883 C 351.160 91.069,350.899 90.127,350.646 89.627 C 350.566 89.468,350.500 89.191,350.500 89.012 C 350.500 88.833,350.425 88.640,350.333 88.583 C 350.242 88.527,350.167 88.297,350.167 88.073 C 350.167 87.850,350.092 87.667,350.000 87.667 C 349.908 87.667,349.833 87.404,349.833 87.083 C 349.833 86.763,349.758 86.500,349.667 86.500 C 349.575 86.500,349.500 86.275,349.500 86.000 C 349.500 85.725,349.425 85.500,349.333 85.500 C 349.242 85.500,349.167 85.275,349.167 85.000 C 349.167 84.725,349.101 84.500,349.021 84.500 C 348.942 84.500,348.826 84.118,348.764 83.652 C 348.702 83.186,348.589 82.680,348.513 82.527 C 348.294 82.090,348.000 81.087,348.000 80.780 C 348.000 80.626,347.925 80.500,347.833 80.500 C 347.742 80.500,347.667 80.275,347.667 80.000 C 347.667 79.725,347.592 79.500,347.500 79.500 C 347.408 79.500,347.333 79.275,347.333 79.000 C 347.333 78.725,347.258 78.500,347.167 78.500 C 347.075 78.500,347.000 78.237,347.000 77.917 C 347.000 77.596,346.925 77.333,346.833 77.333 C 346.742 77.333,346.667 77.108,346.667 76.833 C 346.667 76.558,346.599 76.333,346.516 76.333 C 346.433 76.333,346.313 75.958,346.250 75.500 C 346.187 75.042,346.067 74.625,345.984 74.574 C 345.901 74.522,345.833 74.264,345.833 74.000 C 345.833 73.736,345.758 73.473,345.667 73.417 C 345.575 73.360,345.500 73.093,345.500 72.823 C 345.500 72.554,345.425 72.333,345.333 72.333 C 345.242 72.333,345.167 72.108,345.167 71.833 C 345.167 71.558,345.092 71.333,345.000 71.333 C 344.908 71.333,344.833 71.146,344.833 70.917 C 344.833 70.688,344.758 70.500,344.667 70.500 C 344.575 70.500,344.500 70.237,344.500 69.917 C 344.500 69.596,344.425 69.333,344.333 69.333 C 344.242 69.333,344.167 69.108,344.167 68.833 C 344.167 68.558,344.100 68.333,344.019 68.333 C 343.938 68.333,343.820 67.922,343.758 67.419 C 343.695 66.917,343.574 66.462,343.488 66.409 C 343.403 66.357,343.333 66.135,343.333 65.917 C 343.333 65.698,343.258 65.473,343.167 65.417 C 343.075 65.360,343.000 65.098,343.000 64.833 C 343.000 64.569,342.925 64.307,342.833 64.250 C 342.742 64.193,342.667 63.964,342.667 63.740 C 342.667 63.516,342.592 63.333,342.500 63.333 C 342.408 63.333,342.333 63.108,342.333 62.833 C 342.333 62.558,342.258 62.333,342.167 62.333 C 342.075 62.333,342.000 62.108,342.000 61.833 C 342.000 61.558,341.925 61.333,341.833 61.333 C 341.742 61.333,341.667 61.113,341.667 60.843 C 341.667 60.574,341.602 60.313,341.522 60.264 C 341.442 60.214,341.328 59.801,341.267 59.344 C 341.207 58.887,341.084 58.469,340.995 58.414 C 340.906 58.359,340.833 58.093,340.833 57.823 C 340.833 57.554,340.758 57.333,340.667 57.333 C 340.575 57.333,340.500 57.113,340.500 56.843 C 340.500 56.574,340.425 56.307,340.333 56.250 C 340.242 56.193,340.167 55.926,340.167 55.657 C 340.167 55.387,340.092 55.167,340.000 55.167 C 339.908 55.167,339.833 54.942,339.833 54.667 C 339.833 54.392,339.758 54.167,339.667 54.167 C 339.575 54.167,339.500 53.979,339.500 53.750 C 339.500 53.521,339.425 53.333,339.333 53.333 C 339.242 53.333,339.167 53.113,339.167 52.843 C 339.167 52.574,339.092 52.307,339.000 52.250 C 338.908 52.193,338.833 51.973,338.833 51.759 C 338.833 51.340,338.397 49.765,338.151 49.294 C 338.068 49.135,338.000 48.854,338.000 48.669 C 338.000 48.484,337.925 48.333,337.833 48.333 C 337.742 48.333,337.667 48.075,337.667 47.760 C 337.667 47.444,337.592 47.140,337.500 47.083 C 337.408 47.027,337.333 46.797,337.333 46.573 C 337.333 46.350,337.258 46.167,337.167 46.167 C 337.075 46.167,337.000 45.942,337.000 45.667 C 337.000 45.392,336.925 45.167,336.833 45.167 C 336.742 45.167,336.667 44.942,336.667 44.667 C 336.667 44.392,336.605 44.167,336.530 44.167 C 336.455 44.167,336.324 43.773,336.239 43.292 L 336.083 42.417 325.958 42.374 L 315.833 42.331 315.833 42.915 M290.167 95.750 C 290.167 98.583,290.107 100.167,290.000 100.167 C 289.908 100.167,289.833 100.537,289.833 100.990 C 289.833 101.443,289.758 101.860,289.667 101.917 C 289.575 101.973,289.500 102.236,289.500 102.500 C 289.500 102.764,289.425 103.027,289.333 103.083 C 289.242 103.140,289.167 103.365,289.167 103.583 C 289.167 103.802,289.098 104.023,289.015 104.074 C 288.931 104.126,288.812 104.468,288.750 104.834 C 288.688 105.200,288.583 105.500,288.516 105.500 C 288.450 105.500,288.293 105.763,288.167 106.083 C 288.041 106.404,287.877 106.667,287.802 106.667 C 287.728 106.667,287.667 106.800,287.667 106.963 C 287.667 107.126,287.517 107.368,287.333 107.500 C 287.150 107.632,287.000 107.804,287.000 107.881 C 287.000 107.959,286.813 108.268,286.583 108.569 C 286.354 108.869,286.167 109.170,286.167 109.237 C 286.167 109.304,285.848 109.658,285.458 110.024 C 283.857 111.525,283.667 111.720,283.667 111.857 C 283.667 111.936,283.565 112.000,283.441 112.000 C 283.317 112.000,282.995 112.206,282.724 112.458 C 282.454 112.710,281.936 113.067,281.575 113.250 C 281.213 113.433,280.771 113.715,280.594 113.875 C 280.416 114.035,280.172 114.167,280.052 114.167 C 279.932 114.167,279.833 114.242,279.833 114.333 C 279.833 114.425,279.683 114.500,279.500 114.500 C 279.317 114.500,279.167 114.575,279.167 114.667 C 279.167 114.758,279.021 114.833,278.843 114.833 C 278.665 114.833,278.473 114.908,278.417 115.000 C 278.360 115.092,278.168 115.167,277.990 115.167 C 277.812 115.167,277.667 115.242,277.667 115.333 C 277.667 115.425,277.525 115.500,277.352 115.500 C 276.993 115.500,275.392 115.956,274.961 116.182 C 274.801 116.265,274.445 116.333,274.169 116.333 C 273.893 116.333,273.667 116.408,273.667 116.500 C 273.667 116.592,273.259 116.667,272.760 116.667 C 272.261 116.667,271.807 116.742,271.750 116.833 C 271.686 116.936,270.220 117.000,267.907 117.000 C 265.524 117.000,264.167 116.939,264.167 116.833 C 264.167 116.742,263.834 116.667,263.427 116.667 C 263.019 116.667,262.640 116.592,262.583 116.500 C 262.527 116.408,262.227 116.333,261.917 116.333 C 261.607 116.333,261.307 116.258,261.250 116.167 C 261.193 116.075,260.968 116.000,260.750 116.000 C 260.532 116.000,260.311 115.932,260.259 115.848 C 260.207 115.764,259.865 115.645,259.499 115.583 C 259.133 115.521,258.833 115.416,258.833 115.350 C 258.833 115.283,258.571 115.126,258.250 115.000 C 257.929 114.874,257.667 114.710,257.667 114.636 C 257.667 114.561,257.533 114.500,257.370 114.500 C 257.207 114.500,256.965 114.350,256.833 114.167 C 256.701 113.983,256.516 113.833,256.421 113.833 C 256.081 113.833,253.905 111.568,253.581 110.877 C 253.399 110.488,253.194 110.170,253.125 110.169 C 253.056 110.168,253.000 110.017,253.000 109.833 C 253.000 109.650,252.925 109.500,252.833 109.500 C 252.742 109.500,252.667 109.350,252.667 109.167 C 252.667 108.983,252.592 108.833,252.500 108.833 C 252.408 108.833,252.333 108.646,252.333 108.417 C 252.333 108.188,252.258 108.000,252.167 108.000 C 252.074 108.000,252.000 107.559,252.000 107.010 C 252.000 106.465,251.925 105.973,251.833 105.917 C 251.742 105.860,251.667 105.481,251.667 105.073 C 251.667 104.666,251.742 104.333,251.833 104.333 C 251.925 104.333,252.000 103.925,252.000 103.427 C 252.000 102.928,252.075 102.473,252.167 102.417 C 252.258 102.360,252.333 102.093,252.333 101.823 C 252.333 101.554,252.408 101.333,252.500 101.333 C 252.592 101.333,252.667 101.183,252.667 101.000 C 252.667 100.817,252.728 100.667,252.802 100.667 C 252.877 100.667,253.042 100.401,253.170 100.075 C 253.297 99.750,253.499 99.403,253.618 99.305 C 253.736 99.206,253.833 99.002,253.833 98.850 C 253.833 98.698,253.995 98.463,254.192 98.328 C 254.389 98.194,254.874 97.765,255.271 97.375 C 255.667 96.985,256.052 96.667,256.125 96.667 C 256.199 96.667,256.368 96.517,256.500 96.333 C 256.632 96.150,256.874 96.000,257.037 96.000 C 257.200 96.000,257.333 95.936,257.333 95.858 C 257.333 95.781,257.671 95.578,258.083 95.408 C 258.496 95.238,258.833 95.039,258.833 94.966 C 258.833 94.893,259.058 94.833,259.333 94.833 C 259.608 94.833,259.833 94.758,259.833 94.667 C 259.833 94.575,259.983 94.500,260.167 94.500 C 260.350 94.500,260.500 94.425,260.500 94.333 C 260.500 94.242,260.721 94.167,260.990 94.167 C 261.260 94.167,261.527 94.092,261.583 94.000 C 261.640 93.908,261.907 93.833,262.177 93.833 C 262.446 93.833,262.667 93.758,262.667 93.667 C 262.667 93.575,262.929 93.500,263.250 93.500 C 263.571 93.500,263.833 93.435,263.833 93.355 C 263.833 93.181,267.547 92.841,270.667 92.729 C 271.904 92.685,272.988 92.577,273.075 92.491 C 273.162 92.404,274.306 92.333,275.617 92.333 C 277.094 92.333,278.000 92.270,278.000 92.167 C 278.000 92.063,278.941 92.000,280.490 92.000 C 281.970 92.000,283.022 91.932,283.083 91.833 C 283.144 91.735,284.165 91.667,285.583 91.667 C 287.002 91.667,288.022 91.599,288.083 91.500 C 288.140 91.408,288.632 91.333,289.177 91.333 L 290.167 91.333 290.167 95.750 " stroke="none" fill="#040404" fill-rule="evenodd"></path><path id="path1" d="" stroke="none" fill="#080404" fill-rule="evenodd"></path><path id="path2" d="" stroke="none" fill="#080404" fill-rule="evenodd"></path><path id="path3" d="" stroke="none" fill="#080404" fill-rule="evenodd"></path><path id="path4" d="" stroke="none" fill="#080404" fill-rule="evenodd"></path></g></svg>