<svg id="svg" version="1.1" xmlns="http://www.w3.org/2000/svg" xmlns:xlink="http://www.w3.org/1999/xlink" width="400" height="114" viewBox="0, 0, 400,114"><g id="svgg"><path id="path0" d="M281.598 31.476 C 281.549 31.556,281.243 31.665,280.918 31.718 C 280.220 31.831,279.399 32.589,279.236 33.270 C 279.172 33.534,279.056 33.833,278.977 33.934 C 278.898 34.035,278.785 34.579,278.726 35.142 C 278.667 35.706,278.565 36.167,278.499 36.167 C 278.433 36.167,278.327 36.746,278.263 37.454 C 278.199 38.162,278.086 38.818,278.012 38.912 C 277.938 39.006,277.827 39.906,277.765 40.912 C 277.702 41.917,277.588 42.780,277.510 42.828 C 277.432 42.877,277.313 43.517,277.246 44.250 C 277.178 44.983,277.057 45.626,276.976 45.678 C 276.895 45.730,276.781 46.499,276.722 47.386 C 276.664 48.274,276.567 49.000,276.506 49.000 C 276.445 49.000,276.378 49.319,276.357 49.708 C 276.336 50.098,276.242 50.867,276.149 51.417 C 276.055 51.967,275.894 53.017,275.792 53.750 C 275.689 54.483,275.545 55.124,275.472 55.175 C 275.399 55.225,275.290 56.050,275.230 57.008 C 275.170 57.966,275.064 58.825,274.994 58.917 C 274.924 59.008,274.813 59.665,274.747 60.375 C 274.681 61.085,274.572 61.667,274.503 61.667 C 274.435 61.667,274.327 62.246,274.263 62.954 C 274.199 63.662,274.057 64.348,273.948 64.479 C 273.839 64.611,273.778 64.744,273.811 64.777 C 273.932 64.893,273.632 68.333,273.501 68.333 C 273.428 68.333,273.314 68.949,273.247 69.702 C 273.180 70.454,273.063 71.185,272.985 71.327 C 272.841 71.592,272.619 73.158,272.305 76.125 C 272.206 77.065,272.067 77.833,271.996 77.833 C 271.926 77.833,271.814 78.452,271.747 79.208 C 271.681 79.965,271.562 80.624,271.483 80.675 C 271.404 80.725,271.289 81.550,271.228 82.508 C 271.166 83.466,271.045 84.297,270.958 84.354 C 270.577 84.603,270.724 88.547,271.136 89.125 L 271.523 89.667 277.409 89.667 C 281.812 89.667,283.395 89.614,283.689 89.457 C 284.381 89.090,284.833 88.603,284.833 88.227 C 284.833 88.026,284.913 87.834,285.011 87.802 C 285.108 87.769,285.232 87.407,285.286 86.996 C 285.339 86.586,285.434 86.212,285.497 86.167 C 285.625 86.073,285.919 83.993,286.192 81.250 C 286.292 80.242,286.430 79.379,286.498 79.333 C 286.614 79.255,286.744 78.504,287.206 75.250 C 287.310 74.517,287.439 73.879,287.493 73.833 C 287.547 73.787,287.611 73.487,287.635 73.167 C 287.707 72.233,287.848 71.667,288.010 71.667 C 288.093 71.667,288.208 71.475,288.267 71.242 C 288.341 70.945,288.519 70.788,288.853 70.721 C 289.117 70.668,289.333 70.564,289.333 70.490 C 289.333 70.416,292.697 70.331,296.808 70.302 C 301.974 70.266,304.355 70.193,304.516 70.064 C 304.645 69.962,305.072 69.830,305.466 69.770 C 305.859 69.710,306.309 69.591,306.466 69.505 C 306.622 69.420,307.106 69.304,307.542 69.248 C 307.977 69.192,308.333 69.082,308.333 69.003 C 308.333 68.924,308.558 68.810,308.833 68.750 C 309.108 68.690,309.333 68.577,309.333 68.500 C 309.333 68.423,309.558 68.310,309.833 68.250 C 310.108 68.190,310.333 68.079,310.333 68.005 C 310.333 67.930,310.536 67.819,310.783 67.757 C 311.031 67.694,311.398 67.465,311.600 67.248 C 311.802 67.030,312.235 66.708,312.563 66.532 C 313.198 66.192,315.420 63.971,316.250 62.847 C 316.525 62.474,316.881 62.007,317.042 61.809 C 317.202 61.611,317.333 61.310,317.333 61.141 C 317.333 60.972,317.403 60.833,317.488 60.833 C 317.574 60.833,317.817 60.477,318.030 60.042 C 318.243 59.606,318.473 59.225,318.542 59.194 C 318.611 59.164,318.714 58.845,318.772 58.486 C 318.829 58.127,318.938 57.833,319.014 57.833 C 319.090 57.833,319.201 57.571,319.261 57.250 C 319.321 56.929,319.436 56.667,319.517 56.667 C 319.597 56.667,319.711 56.367,319.769 56.000 C 319.828 55.633,319.931 55.333,319.997 55.333 C 320.064 55.333,320.169 54.793,320.230 54.132 C 320.292 53.471,320.411 52.888,320.496 52.836 C 320.581 52.784,320.702 52.218,320.766 51.579 C 320.830 50.940,320.966 50.363,321.066 50.298 C 321.330 50.127,321.320 42.803,321.057 42.484 C 320.950 42.355,320.808 41.950,320.741 41.583 C 320.674 41.217,320.549 40.871,320.463 40.816 C 320.378 40.760,320.266 40.404,320.215 40.024 C 320.164 39.644,320.066 39.333,319.996 39.333 C 319.926 39.333,319.826 39.165,319.773 38.958 C 319.720 38.752,319.487 38.380,319.255 38.132 C 319.023 37.884,318.833 37.637,318.833 37.584 C 318.833 37.253,316.951 35.167,316.652 35.167 C 316.575 35.167,316.288 34.960,316.015 34.708 C 315.198 33.954,315.048 33.852,314.598 33.739 C 314.361 33.679,314.167 33.570,314.167 33.495 C 314.167 33.421,313.942 33.310,313.667 33.250 C 313.392 33.190,313.167 33.072,313.167 32.989 C 313.167 32.905,312.867 32.789,312.500 32.731 C 312.133 32.672,311.833 32.568,311.833 32.500 C 311.833 32.432,311.389 32.326,310.845 32.265 C 310.301 32.203,309.832 32.079,309.802 31.989 C 309.772 31.898,308.979 31.777,308.040 31.720 C 307.101 31.663,306.333 31.554,306.333 31.479 C 306.333 31.293,281.713 31.290,281.598 31.476 M377.833 32.000 C 377.622 32.183,377.385 32.333,377.308 32.333 C 377.230 32.333,377.167 32.446,377.167 32.583 C 377.167 32.721,377.103 32.833,377.025 32.833 C 376.947 32.833,376.832 33.674,376.770 34.702 C 376.708 35.729,376.593 36.610,376.515 36.660 C 376.437 36.709,376.319 37.294,376.253 37.958 C 376.187 38.623,376.079 39.167,376.012 39.167 C 375.946 39.167,375.803 39.917,375.696 40.833 C 375.588 41.750,375.412 43.250,375.304 44.167 C 375.197 45.083,375.055 45.833,374.988 45.833 C 374.922 45.833,374.814 46.452,374.747 47.208 C 374.681 47.965,374.564 48.623,374.488 48.672 C 374.411 48.720,374.297 49.564,374.233 50.547 C 374.170 51.529,374.062 52.333,373.995 52.333 C 373.928 52.333,373.820 52.971,373.755 53.749 C 373.690 54.528,373.575 55.204,373.499 55.250 C 373.424 55.297,373.309 55.916,373.244 56.626 C 373.180 57.336,373.068 57.992,372.997 58.083 C 372.926 58.175,372.813 59.056,372.747 60.042 C 372.681 61.027,372.569 61.833,372.497 61.833 C 372.426 61.833,372.315 62.434,372.250 63.168 C 372.185 63.901,372.072 64.539,372.000 64.583 C 371.928 64.628,371.814 65.281,371.747 66.034 C 371.680 66.787,371.563 67.519,371.487 67.660 C 371.411 67.801,371.300 68.648,371.242 69.542 C 371.183 70.435,371.074 71.167,370.999 71.167 C 370.923 71.167,370.808 71.748,370.742 72.458 C 370.677 73.169,370.557 73.793,370.476 73.845 C 370.395 73.896,370.281 74.778,370.222 75.803 C 370.164 76.828,370.062 77.667,369.996 77.667 C 369.930 77.667,369.824 78.267,369.760 79.000 C 369.696 79.733,369.581 80.333,369.504 80.333 C 369.426 80.333,369.310 80.971,369.245 81.750 C 369.180 82.529,369.068 83.167,368.996 83.167 C 368.924 83.167,368.817 83.973,368.759 84.958 C 368.700 85.944,368.580 86.880,368.493 87.039 C 368.219 87.537,368.299 89.156,368.613 89.470 C 369.080 89.937,380.422 89.892,380.958 89.421 C 381.165 89.241,381.333 88.997,381.333 88.880 C 381.333 88.762,381.402 88.667,381.486 88.667 C 381.570 88.667,381.691 88.104,381.755 87.417 C 381.820 86.729,381.933 86.167,382.006 86.167 C 382.080 86.167,382.193 85.417,382.258 84.500 C 382.323 83.583,382.445 82.833,382.529 82.833 C 382.613 82.833,382.663 82.740,382.641 82.625 C 382.561 82.206,382.860 79.667,382.990 79.667 C 383.063 79.667,383.178 79.048,383.244 78.292 C 383.309 77.536,383.430 76.876,383.512 76.826 C 383.594 76.775,383.711 75.856,383.773 74.783 C 383.834 73.711,383.941 72.833,384.011 72.833 C 384.081 72.833,384.191 72.271,384.255 71.583 C 384.320 70.896,384.428 70.333,384.497 70.333 C 384.565 70.333,384.673 69.754,384.737 69.046 C 384.801 68.338,384.914 67.682,384.988 67.588 C 385.061 67.494,385.169 66.596,385.228 65.593 C 385.286 64.590,385.401 63.727,385.483 63.676 C 385.564 63.625,385.686 62.983,385.752 62.250 C 385.819 61.517,385.932 60.842,386.004 60.750 C 386.075 60.658,386.188 60.058,386.254 59.417 C 386.320 58.775,386.419 58.175,386.475 58.083 C 386.590 57.892,386.604 57.773,386.753 55.792 C 386.814 54.990,386.921 54.333,386.992 54.333 C 387.063 54.333,387.173 53.754,387.237 53.045 C 387.302 52.337,387.422 51.715,387.505 51.663 C 387.588 51.612,387.708 50.729,387.770 49.702 C 387.832 48.674,387.938 47.833,388.005 47.833 C 388.072 47.833,388.180 47.196,388.245 46.417 C 388.310 45.638,388.424 44.964,388.498 44.918 C 388.572 44.872,388.686 44.291,388.752 43.626 C 388.817 42.961,388.935 42.337,389.014 42.239 C 389.093 42.141,389.208 41.222,389.270 40.197 C 389.333 39.172,389.441 38.333,389.511 38.333 C 389.581 38.333,389.692 37.752,389.758 37.042 C 389.823 36.331,389.938 35.711,390.013 35.662 C 390.412 35.405,390.387 32.519,389.982 32.092 L 389.583 31.672 383.901 31.670 C 378.455 31.667,378.202 31.681,377.833 32.000 M80.062 34.964 C 79.958 35.029,79.744 35.758,79.585 36.583 C 79.426 37.408,79.161 38.571,78.996 39.167 C 78.363 41.450,77.809 43.246,77.686 43.411 C 77.615 43.506,77.421 43.958,77.254 44.417 C 74.621 51.648,67.666 58.566,60.917 60.668 C 60.550 60.782,59.950 60.973,59.583 61.093 C 56.270 62.173,54.484 62.326,45.164 62.330 L 37.078 62.333 36.331 62.726 C 34.887 63.484,34.140 65.145,33.583 68.833 C 33.424 69.887,33.147 71.612,32.968 72.667 C 32.789 73.721,32.541 75.296,32.418 76.167 C 32.294 77.037,31.999 78.950,31.762 80.417 C 31.524 81.883,31.221 83.758,31.087 84.583 C 30.954 85.408,30.723 86.908,30.574 87.917 C 30.269 89.976,29.697 92.333,29.501 92.333 C 29.430 92.333,29.320 92.896,29.255 93.583 C 29.191 94.271,29.078 94.833,29.005 94.833 C 28.932 94.833,28.820 95.471,28.755 96.250 C 28.690 97.029,28.568 97.667,28.485 97.667 C 28.401 97.667,28.333 98.709,28.333 100.000 C 28.333 101.283,28.400 102.333,28.482 102.333 C 28.564 102.333,28.676 102.515,28.732 102.738 C 28.880 103.329,29.422 103.359,39.014 103.301 L 47.444 103.250 47.884 102.750 C 48.125 102.475,48.325 102.162,48.328 102.056 C 48.331 101.949,48.427 101.830,48.541 101.792 C 48.679 101.746,48.769 101.239,48.808 100.278 C 48.841 99.483,48.926 98.833,48.997 98.833 C 49.069 98.833,49.180 98.196,49.245 97.417 C 49.310 96.638,49.424 95.964,49.497 95.918 C 49.571 95.873,49.685 95.235,49.750 94.501 C 49.815 93.767,49.929 93.167,50.003 93.167 C 50.077 93.167,50.191 92.267,50.257 91.167 C 50.322 90.067,50.433 89.167,50.502 89.167 C 50.571 89.167,50.680 88.529,50.745 87.750 C 50.810 86.971,50.920 86.333,50.988 86.333 C 51.106 86.333,51.318 84.851,51.650 81.707 C 51.730 80.950,51.870 80.237,51.962 80.123 C 52.053 80.010,52.180 79.673,52.244 79.375 C 52.308 79.077,52.412 78.833,52.477 78.833 C 52.541 78.833,52.678 78.609,52.782 78.334 C 52.886 78.059,53.109 77.783,53.277 77.721 C 53.446 77.659,53.637 77.527,53.702 77.429 C 53.781 77.310,55.584 77.233,59.112 77.199 C 62.023 77.172,64.482 77.087,64.577 77.011 C 64.672 76.935,65.406 76.820,66.208 76.755 C 67.010 76.690,67.667 76.574,67.667 76.498 C 67.667 76.422,68.154 76.308,68.750 76.244 C 69.346 76.180,69.833 76.070,69.833 76.000 C 69.833 75.929,70.171 75.821,70.583 75.759 C 70.996 75.697,71.333 75.582,71.333 75.503 C 71.333 75.424,71.558 75.310,71.833 75.250 C 72.108 75.190,72.333 75.081,72.333 75.008 C 72.333 74.935,72.633 74.828,73.000 74.769 C 73.367 74.711,73.667 74.595,73.667 74.511 C 73.667 74.428,73.885 74.312,74.153 74.253 C 74.420 74.194,74.680 74.038,74.731 73.906 C 74.781 73.775,74.938 73.667,75.078 73.667 C 75.218 73.667,75.333 73.600,75.333 73.518 C 75.333 73.436,75.521 73.322,75.750 73.265 C 75.979 73.207,76.167 73.087,76.167 72.997 C 76.167 72.907,76.275 72.833,76.408 72.833 C 76.541 72.833,76.710 72.740,76.783 72.625 C 76.929 72.397,77.924 71.667,78.088 71.667 C 78.260 71.667,78.667 71.202,78.667 71.007 C 78.667 70.906,78.798 70.773,78.958 70.713 C 79.334 70.571,80.071 69.834,80.213 69.458 C 80.273 69.298,80.438 69.167,80.578 69.167 C 80.718 69.167,80.833 69.054,80.833 68.917 C 80.833 68.779,80.903 68.667,80.989 68.667 C 81.074 68.667,81.197 68.501,81.261 68.299 C 81.325 68.097,81.593 67.742,81.856 67.512 C 82.118 67.281,82.333 66.997,82.333 66.880 C 82.333 66.762,82.407 66.667,82.497 66.667 C 82.587 66.667,82.707 66.479,82.765 66.250 C 82.822 66.021,82.936 65.833,83.018 65.833 C 83.100 65.833,83.167 65.718,83.167 65.578 C 83.167 65.438,83.279 65.280,83.417 65.227 C 83.554 65.174,83.667 65.032,83.667 64.911 C 83.667 64.790,83.770 64.587,83.896 64.461 C 84.023 64.334,84.179 63.992,84.243 63.699 C 84.307 63.406,84.423 63.167,84.500 63.167 C 84.577 63.167,84.690 62.942,84.750 62.667 C 84.810 62.392,84.921 62.167,84.995 62.167 C 85.069 62.167,85.182 61.885,85.246 61.542 C 85.311 61.198,85.422 60.842,85.493 60.750 C 85.565 60.658,85.674 60.302,85.736 59.958 C 85.798 59.615,85.913 59.333,85.993 59.333 C 86.072 59.333,86.191 59.015,86.256 58.625 C 86.321 58.235,86.449 57.869,86.541 57.811 C 86.633 57.752,86.747 57.171,86.793 56.519 C 86.840 55.867,86.937 55.333,87.008 55.333 C 87.080 55.333,87.192 54.752,87.258 54.042 C 87.323 53.331,87.458 52.698,87.557 52.635 C 87.814 52.471,87.819 44.865,87.562 44.702 C 87.458 44.637,87.320 44.190,87.255 43.708 C 87.189 43.227,87.077 42.833,87.006 42.833 C 86.935 42.833,86.838 42.487,86.790 42.063 C 86.742 41.639,86.630 41.245,86.541 41.188 C 86.451 41.130,86.326 40.915,86.261 40.708 C 86.197 40.502,86.080 40.333,86.002 40.333 C 85.924 40.333,85.810 40.108,85.750 39.833 C 85.690 39.558,85.571 39.333,85.487 39.333 C 85.402 39.333,85.333 39.238,85.333 39.120 C 85.333 39.003,85.127 38.722,84.875 38.495 C 84.623 38.269,84.229 37.803,84.000 37.459 C 83.771 37.116,83.495 36.835,83.387 36.834 C 83.279 36.834,83.059 36.702,82.899 36.542 C 82.301 35.943,81.072 35.167,80.723 35.167 C 80.524 35.167,80.336 35.094,80.306 35.005 C 80.275 34.917,80.165 34.898,80.062 34.964 M301.250 43.500 C 301.307 43.592,301.546 43.667,301.782 43.667 C 302.240 43.667,303.333 44.261,303.333 44.510 C 303.333 44.593,303.521 44.707,303.750 44.765 C 303.979 44.822,304.167 44.975,304.167 45.103 C 304.167 45.231,304.317 45.465,304.500 45.622 C 304.683 45.779,304.833 46.003,304.833 46.120 C 304.833 46.238,304.900 46.333,304.981 46.333 C 305.097 46.333,305.277 47.191,305.405 48.361 C 305.411 48.422,305.473 48.528,305.542 48.597 C 305.714 48.770,305.700 49.667,305.524 49.667 C 305.446 49.667,305.339 50.234,305.286 50.927 C 305.234 51.620,305.121 52.276,305.035 52.385 C 304.949 52.494,304.836 52.919,304.783 53.330 C 304.731 53.740,304.611 54.102,304.516 54.133 C 304.422 54.165,304.175 54.541,303.968 54.970 C 303.540 55.857,301.776 57.667,301.340 57.667 C 301.267 57.667,301.119 57.773,301.011 57.904 C 300.903 58.034,300.500 58.192,300.115 58.256 C 299.731 58.319,299.313 58.455,299.186 58.558 C 299.033 58.682,297.425 58.766,294.394 58.808 L 289.833 58.871 289.833 58.283 C 289.833 57.959,289.906 57.669,289.995 57.639 C 290.084 57.608,290.208 56.740,290.270 55.708 C 290.332 54.677,290.437 53.833,290.504 53.833 C 290.570 53.833,290.676 53.233,290.740 52.500 C 290.804 51.767,290.916 51.167,290.990 51.167 C 291.063 51.167,291.177 50.548,291.243 49.792 C 291.309 49.035,291.421 48.342,291.492 48.250 C 291.564 48.158,291.673 47.258,291.735 46.250 C 291.797 45.242,291.920 44.392,292.007 44.361 C 292.095 44.331,292.167 44.087,292.167 43.819 L 292.167 43.333 296.657 43.333 C 299.470 43.333,301.185 43.396,301.250 43.500 M337.917 49.772 C 337.642 49.812,337.267 49.912,337.083 49.993 C 336.900 50.074,336.295 50.181,335.738 50.231 C 335.182 50.281,334.507 50.437,334.238 50.577 C 333.970 50.717,333.619 50.832,333.458 50.832 C 333.298 50.833,333.167 50.905,333.167 50.992 C 333.167 51.080,332.904 51.201,332.583 51.261 C 332.262 51.321,332.000 51.427,332.000 51.497 C 332.000 51.567,331.700 51.672,331.333 51.731 C 330.967 51.789,330.667 51.910,330.667 51.999 C 330.667 52.088,330.479 52.207,330.250 52.265 C 330.021 52.322,329.833 52.430,329.833 52.505 C 329.833 52.579,329.615 52.688,329.347 52.747 C 329.080 52.806,328.820 52.962,328.769 53.094 C 328.719 53.225,328.590 53.333,328.483 53.333 C 328.376 53.333,328.114 53.521,327.902 53.750 C 327.690 53.979,327.441 54.167,327.349 54.167 C 327.258 54.167,326.928 54.429,326.616 54.750 C 326.305 55.071,325.982 55.334,325.900 55.336 C 325.817 55.337,325.450 55.686,325.083 56.112 C 324.717 56.538,324.023 57.304,323.542 57.814 C 323.060 58.324,322.667 58.843,322.667 58.967 C 322.667 59.091,322.442 59.417,322.167 59.692 C 321.892 59.967,321.667 60.299,321.667 60.429 C 321.667 60.560,321.598 60.667,321.513 60.667 C 321.429 60.667,321.310 60.892,321.250 61.167 C 321.190 61.442,321.077 61.667,321.000 61.667 C 320.923 61.667,320.812 61.885,320.753 62.153 C 320.694 62.420,320.538 62.680,320.406 62.731 C 320.275 62.781,320.167 63.013,320.167 63.245 C 320.167 63.477,320.100 63.667,320.019 63.667 C 319.937 63.667,319.821 63.929,319.761 64.250 C 319.701 64.571,319.590 64.833,319.514 64.833 C 319.438 64.833,319.329 65.127,319.272 65.486 C 319.214 65.845,319.093 66.164,319.003 66.194 C 318.913 66.225,318.769 66.700,318.683 67.250 C 318.596 67.800,318.447 68.550,318.350 68.917 C 318.254 69.283,318.173 69.858,318.171 70.194 C 318.168 70.531,318.076 70.836,317.965 70.873 C 317.692 70.964,317.665 77.457,317.936 77.632 C 318.038 77.697,318.175 78.117,318.241 78.566 C 318.307 79.015,318.426 79.503,318.505 79.649 C 318.584 79.796,318.693 80.198,318.748 80.542 C 318.803 80.885,318.914 81.167,318.994 81.167 C 319.075 81.167,319.190 81.392,319.250 81.667 C 319.310 81.942,319.421 82.167,319.495 82.167 C 319.570 82.167,319.680 82.363,319.740 82.603 C 319.800 82.844,319.940 83.135,320.050 83.250 C 320.160 83.365,320.362 83.627,320.500 83.832 C 320.637 84.037,320.881 84.377,321.042 84.587 C 321.202 84.797,321.333 85.020,321.333 85.081 C 321.333 85.260,323.289 87.167,323.472 87.167 C 323.563 87.167,323.819 87.383,324.041 87.647 C 324.263 87.911,324.623 88.183,324.840 88.252 C 325.057 88.321,325.337 88.480,325.462 88.605 C 325.588 88.731,325.798 88.833,325.929 88.833 C 326.060 88.833,326.167 88.905,326.167 88.992 C 326.167 89.187,327.058 89.603,327.792 89.751 C 328.090 89.811,328.333 89.919,328.333 89.992 C 328.333 90.065,328.650 90.175,329.037 90.237 C 329.424 90.298,329.796 90.439,329.864 90.550 C 330.035 90.826,338.623 90.838,338.798 90.562 C 338.863 90.458,339.310 90.320,339.792 90.255 C 340.273 90.189,340.667 90.072,340.667 89.995 C 340.667 89.917,341.004 89.803,341.417 89.741 C 341.829 89.679,342.167 89.568,342.167 89.494 C 342.167 89.420,342.385 89.312,342.653 89.253 C 342.920 89.194,343.180 89.038,343.231 88.906 C 343.281 88.775,343.438 88.667,343.578 88.667 C 343.718 88.667,343.833 88.600,343.833 88.518 C 343.833 88.436,344.021 88.322,344.250 88.265 C 344.479 88.207,344.667 88.087,344.667 87.997 C 344.667 87.907,344.764 87.833,344.883 87.833 C 345.002 87.833,345.283 87.612,345.508 87.340 C 345.733 87.069,346.007 86.844,346.117 86.840 C 346.227 86.837,346.572 86.571,346.884 86.250 C 347.195 85.929,347.504 85.667,347.570 85.667 C 347.636 85.667,347.803 85.554,347.940 85.417 C 348.078 85.279,348.313 85.167,348.462 85.167 C 348.673 85.167,348.689 85.211,348.533 85.367 C 348.223 85.677,348.274 88.991,348.596 89.417 C 348.839 89.738,349.043 89.750,354.478 89.750 C 360.630 89.750,360.509 89.769,360.760 88.770 C 360.820 88.530,360.934 88.333,361.012 88.333 C 361.091 88.333,361.205 87.958,361.266 87.500 C 361.327 87.042,361.433 86.667,361.502 86.667 C 361.571 86.667,361.680 86.029,361.745 85.250 C 361.810 84.471,361.916 83.833,361.981 83.833 C 362.046 83.833,362.113 83.552,362.130 83.208 C 362.218 81.443,362.383 79.989,362.503 79.915 C 362.578 79.869,362.691 79.269,362.755 78.582 C 362.820 77.895,362.933 77.333,363.006 77.333 C 363.080 77.333,363.193 76.583,363.258 75.667 C 363.323 74.750,363.430 74.000,363.497 74.000 C 363.563 74.000,363.666 73.311,363.726 72.468 C 363.785 71.625,363.898 70.894,363.977 70.843 C 364.055 70.792,364.174 70.188,364.241 69.500 C 364.307 68.813,364.428 68.170,364.509 68.072 C 364.591 67.974,364.708 67.055,364.770 66.030 C 364.833 65.005,364.939 64.167,365.008 64.167 C 365.076 64.167,365.185 63.566,365.250 62.832 C 365.315 62.099,365.429 61.461,365.503 61.415 C 365.578 61.369,365.691 60.769,365.755 60.082 C 365.820 59.395,365.928 58.833,365.995 58.833 C 366.063 58.833,366.170 57.954,366.235 56.879 C 366.299 55.805,366.430 54.877,366.525 54.818 C 367.003 54.523,366.773 51.917,366.221 51.364 L 365.692 50.833 360.281 50.833 C 355.624 50.833,354.856 50.868,354.773 51.083 C 354.720 51.221,354.562 51.333,354.422 51.333 C 354.282 51.333,354.167 51.446,354.167 51.583 C 354.167 51.721,354.102 51.833,354.024 51.833 C 353.945 51.833,353.831 52.504,353.769 53.325 C 353.603 55.520,353.090 56.214,352.756 54.694 C 352.692 54.404,352.571 54.167,352.487 54.167 C 352.402 54.167,352.332 54.073,352.331 53.958 C 352.330 53.844,352.035 53.433,351.675 53.046 C 351.316 52.659,350.960 52.246,350.886 52.129 C 350.723 51.874,350.250 51.559,349.625 51.291 C 349.373 51.182,349.167 51.043,349.167 50.982 C 349.167 50.920,348.961 50.818,348.710 50.755 C 348.459 50.692,348.204 50.561,348.144 50.464 C 348.085 50.367,347.634 50.251,347.143 50.206 C 346.652 50.161,346.145 50.040,346.016 49.937 C 345.784 49.751,339.006 49.613,337.917 49.772 M345.699 60.966 C 345.810 61.076,346.105 61.167,346.355 61.167 C 346.605 61.167,346.922 61.279,347.060 61.417 C 347.197 61.554,347.355 61.667,347.412 61.667 C 347.556 61.667,348.572 62.391,348.639 62.542 C 348.669 62.610,348.784 62.667,348.894 62.667 C 349.104 62.667,349.667 63.248,349.667 63.465 C 349.667 63.535,349.817 63.721,350.000 63.878 C 350.183 64.035,350.333 64.269,350.333 64.397 C 350.333 64.526,350.446 64.674,350.583 64.727 C 350.721 64.780,350.833 64.938,350.833 65.078 C 350.833 65.218,350.900 65.333,350.981 65.333 C 351.062 65.333,351.180 65.746,351.243 66.250 C 351.306 66.754,351.427 67.167,351.512 67.167 C 351.597 67.167,351.667 67.952,351.667 68.917 C 351.667 69.879,351.599 70.667,351.516 70.667 C 351.434 70.667,351.314 71.117,351.250 71.667 C 351.186 72.217,351.072 72.667,350.997 72.667 C 350.921 72.667,350.812 72.885,350.753 73.153 C 350.694 73.420,350.538 73.680,350.406 73.731 C 350.275 73.781,350.167 73.938,350.167 74.078 C 350.167 74.218,350.100 74.333,350.018 74.333 C 349.936 74.333,349.822 74.521,349.765 74.750 C 349.707 74.979,349.587 75.167,349.497 75.167 C 349.407 75.167,349.333 75.250,349.333 75.351 C 349.333 75.556,347.610 77.333,347.412 77.333 C 347.344 77.333,347.123 77.512,346.920 77.731 C 346.718 77.949,346.390 78.179,346.193 78.242 C 345.995 78.304,345.833 78.417,345.833 78.493 C 345.833 78.568,345.571 78.679,345.250 78.739 C 344.929 78.799,344.667 78.906,344.667 78.975 C 344.667 79.197,343.284 79.730,342.333 79.875 C 340.531 80.149,338.833 80.214,338.833 80.008 C 338.833 79.901,338.777 79.848,338.708 79.890 C 338.510 80.010,336.787 79.695,336.678 79.519 C 336.624 79.431,336.374 79.308,336.123 79.245 C 335.872 79.182,335.667 79.072,335.667 79.000 C 335.667 78.928,335.479 78.822,335.250 78.765 C 335.021 78.707,334.833 78.587,334.833 78.497 C 334.833 78.407,334.750 78.333,334.647 78.333 C 334.440 78.333,333.167 77.112,333.167 76.914 C 333.167 76.845,332.984 76.619,332.761 76.412 C 332.538 76.205,332.304 75.766,332.242 75.435 C 332.180 75.104,332.070 74.833,331.996 74.833 C 331.923 74.833,331.812 74.534,331.750 74.168 C 331.688 73.801,331.569 73.459,331.485 73.408 C 331.290 73.287,331.285 70.167,331.481 70.167 C 331.562 70.167,331.679 69.831,331.741 69.421 C 331.802 69.010,331.917 68.635,331.995 68.586 C 332.074 68.538,332.188 68.199,332.250 67.832 C 332.312 67.466,332.431 67.167,332.515 67.167 C 332.598 67.167,332.667 67.053,332.667 66.915 C 332.667 66.777,332.817 66.535,333.000 66.378 C 333.183 66.221,333.333 65.997,333.333 65.880 C 333.333 65.762,333.408 65.667,333.500 65.667 C 333.592 65.667,333.667 65.560,333.667 65.430 C 333.667 65.163,334.993 63.783,335.652 63.365 C 335.889 63.215,336.143 62.996,336.217 62.879 C 336.290 62.762,336.459 62.667,336.592 62.667 C 336.725 62.667,336.833 62.609,336.833 62.540 C 336.833 62.470,336.978 62.338,337.155 62.248 C 338.811 61.402,339.368 61.169,339.814 61.135 C 340.100 61.114,340.333 61.041,340.333 60.975 C 340.333 60.635,345.360 60.626,345.699 60.966 " stroke="none" fill="#049ce4" fill-rule="evenodd"></path><path id="path1" d="M25.000 11.275 C 23.938 11.624,22.333 12.620,22.333 12.932 C 22.333 12.986,22.183 13.221,22.000 13.455 C 21.817 13.688,21.667 14.126,21.667 14.429 C 21.667 14.732,21.598 15.023,21.514 15.075 C 21.430 15.126,21.309 15.731,21.245 16.418 C 21.180 17.105,21.070 17.667,21.000 17.667 C 20.930 17.667,20.818 18.248,20.752 18.958 C 20.686 19.669,20.586 20.325,20.529 20.417 C 20.390 20.642,20.365 20.833,20.236 22.667 C 20.175 23.537,20.067 24.325,19.996 24.417 C 19.924 24.508,19.812 25.108,19.746 25.750 C 19.680 26.392,19.569 26.992,19.498 27.083 C 19.428 27.175,19.316 27.813,19.250 28.500 C 19.184 29.188,19.073 29.825,19.004 29.917 C 18.934 30.008,18.825 30.869,18.762 31.829 C 18.698 32.788,18.583 33.651,18.506 33.745 C 18.429 33.839,18.312 34.442,18.246 35.083 C 18.180 35.725,18.069 36.325,17.998 36.417 C 17.869 36.585,17.691 37.988,17.633 39.292 C 17.616 39.681,17.552 40.000,17.491 40.000 C 17.431 40.000,17.330 40.615,17.267 41.366 C 17.205 42.117,17.090 42.811,17.012 42.908 C 16.934 43.004,16.816 43.646,16.750 44.333 C 16.683 45.021,16.583 45.658,16.527 45.750 C 16.376 45.998,16.338 46.272,16.225 47.917 C 16.168 48.742,16.064 49.492,15.994 49.583 C 15.924 49.675,15.812 50.275,15.746 50.917 C 15.680 51.558,15.569 52.158,15.498 52.250 C 15.428 52.342,15.316 52.979,15.250 53.667 C 15.184 54.354,15.058 55.005,14.971 55.113 C 14.884 55.220,14.832 55.408,14.855 55.529 C 14.930 55.927,14.636 58.746,14.502 58.917 C 14.430 59.008,14.320 59.571,14.259 60.167 C 14.197 60.762,14.078 61.438,13.994 61.667 C 13.845 62.076,13.665 63.348,13.310 66.500 C 13.212 67.371,13.074 68.121,13.003 68.167 C 12.932 68.212,12.818 68.813,12.751 69.500 C 12.684 70.188,12.564 70.831,12.484 70.931 C 12.404 71.030,12.290 71.892,12.230 72.847 C 12.170 73.802,12.064 74.658,11.994 74.750 C 11.924 74.842,11.813 75.499,11.747 76.211 C 11.681 76.922,11.569 77.541,11.497 77.585 C 11.426 77.629,11.314 78.209,11.248 78.874 C 11.183 79.539,11.071 80.158,11.000 80.250 C 10.929 80.342,10.816 81.260,10.750 82.292 C 10.684 83.323,10.572 84.167,10.501 84.167 C 10.430 84.167,10.319 84.748,10.253 85.458 C 10.187 86.169,10.052 86.849,9.952 86.971 C 9.844 87.103,9.767 88.075,9.761 89.400 L 9.750 91.607 10.321 92.179 L 10.891 92.750 19.908 92.750 C 30.044 92.750,29.492 92.820,29.729 91.500 C 29.786 91.179,29.944 90.242,30.080 89.417 C 30.216 88.592,30.442 87.242,30.583 86.417 C 30.723 85.592,31.063 83.454,31.338 81.667 C 31.613 79.879,31.941 77.817,32.066 77.083 C 32.191 76.350,32.530 74.212,32.820 72.333 C 33.663 66.858,33.973 65.359,34.447 64.441 C 34.707 63.938,34.706 63.927,34.415 64.167 C 34.132 64.399,34.119 64.387,34.219 63.982 C 34.279 63.744,34.512 62.356,34.737 60.899 C 35.355 56.895,36.449 49.959,37.008 46.500 C 37.850 41.290,37.978 40.492,38.345 38.167 C 38.876 34.797,39.481 33.768,41.239 33.245 C 42.450 32.884,70.471 32.885,73.363 33.245 C 76.130 33.591,79.500 34.564,79.500 35.017 C 79.500 35.921,80.126 34.491,80.183 33.455 C 80.324 30.919,80.218 25.485,80.024 25.291 C 79.919 25.186,79.833 24.930,79.833 24.722 C 79.833 24.361,79.668 23.911,78.979 22.398 C 78.807 22.022,78.667 21.590,78.667 21.440 C 78.667 21.290,78.600 21.167,78.518 21.167 C 78.436 21.167,78.322 20.979,78.265 20.750 C 78.207 20.521,78.087 20.333,77.997 20.333 C 77.907 20.333,77.833 20.218,77.833 20.078 C 77.833 19.938,77.728 19.782,77.598 19.733 C 77.469 19.683,77.318 19.463,77.263 19.244 C 77.050 18.392,73.296 14.995,72.292 14.745 C 72.040 14.682,71.833 14.570,71.833 14.495 C 71.833 14.315,69.971 13.390,69.322 13.247 C 69.041 13.186,68.610 13.030,68.364 12.902 C 68.118 12.774,67.800 12.668,67.658 12.668 C 67.516 12.667,67.328 12.594,67.239 12.506 C 67.151 12.418,66.630 12.299,66.081 12.243 C 65.532 12.187,64.933 12.076,64.750 11.996 C 64.422 11.853,62.875 11.628,60.250 11.340 C 58.879 11.189,25.449 11.128,25.000 11.275 M132.333 31.499 C 132.196 31.588,131.938 31.663,131.760 31.664 C 131.282 31.668,130.339 32.361,130.228 32.792 C 130.174 32.998,130.067 33.167,129.989 33.167 C 129.912 33.167,129.798 33.448,129.736 33.792 C 129.674 34.135,129.565 34.492,129.495 34.583 C 129.424 34.675,129.312 35.275,129.246 35.917 C 129.180 36.558,129.064 37.161,128.989 37.256 C 128.913 37.351,128.806 38.176,128.750 39.089 C 128.694 40.003,128.581 40.900,128.499 41.083 C 128.417 41.267,128.267 41.979,128.167 42.667 C 128.066 43.354,127.879 44.592,127.750 45.417 C 127.622 46.242,127.428 47.667,127.319 48.583 C 127.210 49.500,127.064 50.325,126.996 50.417 C 126.927 50.508,126.815 51.143,126.748 51.827 C 126.681 52.510,126.561 53.185,126.482 53.327 C 126.404 53.468,126.262 54.296,126.167 55.167 C 125.861 57.981,125.586 59.912,125.466 60.097 C 125.401 60.196,125.297 60.796,125.235 61.430 C 125.173 62.064,125.056 62.667,124.975 62.770 C 124.894 62.873,124.780 63.792,124.722 64.812 C 124.663 65.832,124.560 66.667,124.492 66.667 C 124.424 66.667,124.315 67.267,124.250 68.001 C 124.185 68.735,124.074 69.371,124.002 69.415 C 123.931 69.459,123.819 70.078,123.753 70.789 C 123.687 71.501,123.576 72.158,123.505 72.250 C 123.435 72.342,123.325 73.202,123.262 74.162 C 123.198 75.122,123.083 75.984,123.006 76.079 C 122.929 76.173,122.812 76.775,122.746 77.417 C 122.680 78.058,122.551 78.677,122.459 78.792 C 122.368 78.906,122.325 79.000,122.364 79.000 C 122.403 79.000,122.335 79.656,122.211 80.458 C 121.937 82.238,121.893 82.591,121.751 84.124 C 121.689 84.788,121.580 85.367,121.509 85.411 C 120.951 85.756,121.420 88.901,122.106 89.421 C 122.448 89.679,134.333 89.795,134.333 89.540 C 134.333 89.470,134.502 89.338,134.708 89.248 C 134.915 89.157,135.157 88.915,135.248 88.708 C 135.338 88.502,135.465 88.333,135.529 88.333 C 135.594 88.333,135.697 87.996,135.759 87.583 C 135.821 87.171,135.930 86.833,136.002 86.833 C 136.074 86.833,136.186 86.290,136.252 85.625 C 136.318 84.960,136.419 84.342,136.477 84.250 C 136.567 84.109,136.739 83.047,137.070 80.583 C 137.107 80.308,137.188 79.540,137.249 78.876 C 137.311 78.212,137.422 77.631,137.497 77.585 C 137.571 77.539,137.685 76.901,137.750 76.167 C 137.815 75.432,137.927 74.795,137.998 74.751 C 138.069 74.707,138.177 74.164,138.239 73.544 C 138.388 72.032,139.067 70.667,139.670 70.667 C 139.815 70.667,140.005 70.597,140.092 70.511 C 140.183 70.421,143.395 70.333,147.715 70.303 C 152.953 70.266,155.214 70.195,155.298 70.065 C 155.363 69.963,155.771 69.827,156.204 69.764 C 156.638 69.700,157.036 69.577,157.089 69.490 C 157.143 69.404,157.354 69.333,157.558 69.333 C 158.053 69.333,159.481 68.820,159.995 68.457 C 160.222 68.297,160.504 68.167,160.623 68.167 C 160.912 68.167,161.442 67.860,162.278 67.208 C 162.660 66.910,163.054 66.667,163.153 66.667 C 163.252 66.667,163.333 66.592,163.333 66.500 C 163.333 66.408,163.415 66.333,163.515 66.333 C 163.753 66.333,165.833 64.253,165.833 64.015 C 165.833 63.915,165.915 63.833,166.015 63.833 C 166.209 63.833,166.819 63.172,166.828 62.951 C 166.831 62.878,167.024 62.616,167.256 62.368 C 167.489 62.120,167.845 61.579,168.048 61.167 C 168.251 60.754,168.473 60.392,168.542 60.361 C 168.610 60.331,168.667 60.224,168.667 60.124 C 168.667 60.025,168.767 59.825,168.890 59.680 C 169.013 59.535,169.287 58.929,169.499 58.333 C 169.711 57.737,169.948 57.179,170.026 57.092 C 170.103 57.005,170.167 56.817,170.168 56.675 C 170.168 56.533,170.287 56.192,170.432 55.917 C 170.577 55.642,170.736 55.004,170.787 54.500 C 170.837 53.996,170.939 53.506,171.012 53.413 C 171.085 53.319,171.199 52.831,171.264 52.329 C 171.329 51.827,171.442 51.378,171.514 51.330 C 171.587 51.282,171.698 50.457,171.762 49.497 C 171.825 48.536,171.941 47.669,172.020 47.569 C 172.288 47.228,171.830 42.430,171.497 42.097 C 171.407 42.007,171.333 41.780,171.332 41.592 C 171.332 41.404,171.230 41.056,171.106 40.818 C 170.982 40.580,170.830 40.117,170.768 39.788 C 170.707 39.460,170.602 39.167,170.536 39.137 C 170.471 39.108,170.229 38.722,170.000 38.281 C 169.771 37.840,169.283 37.153,168.917 36.755 C 168.550 36.357,168.140 35.874,168.005 35.682 C 167.870 35.490,167.678 35.333,167.578 35.333 C 167.478 35.333,167.187 35.115,166.931 34.848 C 166.675 34.582,166.099 34.189,165.650 33.976 C 165.201 33.762,164.833 33.537,164.833 33.474 C 164.833 33.411,164.608 33.310,164.333 33.250 C 164.058 33.190,163.833 33.077,163.833 33.000 C 163.833 32.870,163.354 32.729,161.500 32.315 C 161.087 32.223,160.593 32.070,160.402 31.976 C 159.414 31.492,133.033 31.043,132.333 31.499 M79.242 36.076 C 79.179 36.501,79.164 36.886,79.210 36.932 C 79.256 36.978,79.345 36.668,79.409 36.242 C 79.473 35.817,79.488 35.432,79.442 35.386 C 79.396 35.340,79.306 35.651,79.242 36.076 M78.741 38.574 C 78.678 38.909,78.664 39.220,78.710 39.266 C 78.756 39.311,78.845 39.075,78.907 38.741 C 78.970 38.406,78.984 38.095,78.938 38.049 C 78.892 38.003,78.803 38.240,78.741 38.574 M78.364 40.197 C 78.265 40.587,78.212 40.935,78.248 40.970 C 78.283 41.005,78.396 40.719,78.500 40.333 C 78.604 39.948,78.656 39.600,78.616 39.561 C 78.576 39.521,78.463 39.807,78.364 40.197 M77.750 42.000 C 77.687 42.197,77.674 42.396,77.720 42.442 C 77.765 42.488,77.854 42.364,77.917 42.167 C 77.979 41.970,77.993 41.771,77.947 41.725 C 77.901 41.679,77.813 41.803,77.750 42.000 M77.350 43.267 C 77.232 43.592,77.173 43.895,77.218 43.940 C 77.263 43.985,77.390 43.750,77.500 43.417 C 77.760 42.627,77.629 42.496,77.350 43.267 M152.075 43.514 C 152.162 43.598,152.409 43.667,152.623 43.667 C 153.540 43.667,155.833 45.921,155.833 46.822 C 155.833 47.067,155.913 47.347,156.011 47.444 C 156.557 47.990,155.928 52.529,155.065 54.275 C 154.479 55.462,152.689 57.633,152.474 57.418 C 152.425 57.370,152.190 57.511,151.952 57.732 C 151.713 57.953,151.195 58.188,150.800 58.253 C 150.406 58.318,149.978 58.456,149.849 58.561 C 149.477 58.862,140.202 58.943,140.448 58.643 C 140.550 58.518,140.687 57.817,140.753 57.083 C 140.819 56.350,140.942 55.664,141.026 55.559 C 141.110 55.454,141.161 55.304,141.141 55.226 C 141.053 54.895,141.376 51.833,141.498 51.833 C 141.572 51.833,141.685 51.233,141.750 50.499 C 141.815 49.765,141.928 49.128,142.000 49.083 C 142.122 49.008,142.293 47.642,142.370 46.125 C 142.387 45.781,142.461 45.500,142.534 45.500 C 142.607 45.500,142.668 45.181,142.669 44.792 C 142.674 43.358,142.681 43.351,144.393 43.296 C 146.978 43.213,151.908 43.352,152.075 43.514 M76.431 45.431 C 76.191 45.955,76.024 46.413,76.059 46.448 C 76.094 46.483,76.323 46.087,76.569 45.569 C 76.814 45.050,76.982 44.593,76.941 44.552 C 76.901 44.512,76.671 44.907,76.431 45.431 M74.992 48.292 C 74.695 48.819,74.337 49.438,74.196 49.667 C 73.963 50.047,73.964 50.062,74.206 49.833 C 74.494 49.562,75.750 47.333,75.615 47.333 C 75.569 47.333,75.289 47.765,74.992 48.292 M188.667 49.772 C 188.346 49.811,187.933 49.910,187.750 49.992 C 187.567 50.074,186.975 50.180,186.435 50.228 C 185.894 50.275,185.373 50.393,185.276 50.490 C 185.179 50.587,184.984 50.667,184.842 50.668 C 184.700 50.668,184.378 50.776,184.126 50.907 C 183.875 51.038,183.182 51.310,182.587 51.511 C 181.992 51.712,181.420 51.979,181.315 52.105 C 181.211 52.231,181.055 52.333,180.968 52.333 C 180.881 52.333,180.697 52.446,180.560 52.583 C 180.422 52.721,180.165 52.833,179.988 52.833 C 179.811 52.833,179.667 52.908,179.667 53.000 C 179.667 53.092,179.568 53.167,179.448 53.167 C 179.327 53.167,179.013 53.392,178.750 53.667 C 178.487 53.942,178.198 54.167,178.108 54.167 C 177.917 54.167,177.848 54.226,176.042 55.928 C 175.285 56.641,174.667 57.280,174.667 57.349 C 174.667 57.417,174.371 57.780,174.010 58.156 C 173.649 58.532,173.303 58.999,173.241 59.196 C 173.179 59.392,172.959 59.709,172.754 59.901 C 172.548 60.093,172.322 60.438,172.251 60.667 C 172.180 60.896,172.076 61.121,172.019 61.167 C 171.867 61.290,171.523 61.859,171.313 62.333 C 171.212 62.563,171.025 62.949,170.898 63.192 C 170.771 63.436,170.667 63.754,170.667 63.901 C 170.667 64.047,170.598 64.167,170.513 64.167 C 170.429 64.167,170.309 64.397,170.248 64.678 C 170.186 64.959,170.030 65.390,169.902 65.636 C 169.774 65.882,169.668 66.210,169.668 66.365 C 169.667 66.520,169.602 66.687,169.522 66.736 C 169.442 66.786,169.326 67.348,169.263 67.985 C 169.200 68.623,169.084 69.169,169.006 69.197 C 168.647 69.330,168.151 75.988,168.470 76.388 C 168.556 76.495,168.679 77.090,168.743 77.708 C 168.807 78.327,168.920 78.833,168.994 78.833 C 169.068 78.833,169.179 79.169,169.241 79.579 C 169.302 79.990,169.423 80.369,169.510 80.423 C 169.596 80.476,169.667 80.653,169.667 80.817 C 169.667 80.980,169.849 81.445,170.072 81.849 C 170.295 82.253,170.643 82.911,170.846 83.310 C 171.049 83.710,171.429 84.257,171.691 84.524 C 171.952 84.792,172.167 85.072,172.167 85.146 C 172.167 85.262,173.370 86.430,174.843 87.744 C 175.077 87.953,175.440 88.178,175.651 88.245 C 175.861 88.312,176.175 88.508,176.348 88.682 C 176.727 89.060,177.876 89.600,178.625 89.751 C 178.923 89.811,179.167 89.924,179.167 90.003 C 179.167 90.082,179.504 90.197,179.917 90.259 C 180.329 90.321,180.667 90.422,180.667 90.483 C 180.667 90.811,189.116 90.885,189.516 90.561 C 189.645 90.456,190.069 90.318,190.458 90.254 C 190.848 90.190,191.167 90.076,191.167 90.000 C 191.167 89.924,191.468 89.812,191.837 89.749 C 192.515 89.635,193.862 89.001,194.346 88.568 C 194.491 88.439,194.686 88.333,194.779 88.333 C 194.872 88.333,195.166 88.144,195.432 87.914 C 195.699 87.683,196.217 87.290,196.583 87.040 C 196.950 86.791,197.512 86.315,197.833 85.984 C 199.035 84.743,199.167 84.856,199.167 87.130 C 199.167 89.975,198.660 89.750,205.059 89.750 C 210.398 89.750,211.333 89.645,211.333 89.043 C 211.333 88.928,211.402 88.833,211.485 88.833 C 211.569 88.833,211.690 88.515,211.754 88.125 C 211.818 87.735,211.930 87.342,212.002 87.250 C 212.075 87.158,212.188 86.558,212.254 85.917 C 212.320 85.275,212.436 84.672,212.511 84.577 C 212.587 84.482,212.725 83.694,212.819 82.827 C 213.096 80.256,213.346 78.433,213.458 78.167 C 213.516 78.029,213.656 77.354,213.771 76.667 C 213.886 75.979,214.055 75.042,214.147 74.583 C 214.238 74.125,214.318 73.286,214.323 72.718 C 214.329 72.151,214.401 71.645,214.483 71.594 C 214.565 71.543,214.686 70.957,214.752 70.292 C 214.818 69.627,214.917 69.008,214.973 68.917 C 215.098 68.710,215.130 68.522,215.268 67.167 C 215.329 66.571,215.433 66.008,215.501 65.917 C 215.568 65.825,215.676 65.009,215.740 64.104 C 215.804 63.199,215.923 62.336,216.003 62.188 C 216.084 62.039,216.232 61.392,216.332 60.750 C 216.432 60.108,216.625 58.908,216.761 58.083 C 217.558 53.264,217.534 51.618,216.658 51.125 C 216.055 50.786,205.667 50.668,205.667 51.000 C 205.667 51.092,205.585 51.167,205.485 51.167 C 205.124 51.167,204.678 51.922,204.672 52.544 C 204.669 52.889,204.598 53.301,204.514 53.461 C 204.431 53.620,204.300 54.111,204.223 54.552 C 204.039 55.607,203.859 55.574,203.246 54.375 C 202.470 52.856,201.204 51.696,199.333 50.792 C 199.104 50.681,198.874 50.530,198.821 50.457 C 198.768 50.384,198.318 50.278,197.821 50.220 C 197.324 50.163,196.865 50.036,196.801 49.939 C 196.686 49.761,189.892 49.622,188.667 49.772 M73.443 50.667 C 73.281 50.942,73.184 51.167,73.229 51.167 C 73.274 51.167,73.471 50.942,73.667 50.667 C 73.862 50.392,73.959 50.167,73.881 50.167 C 73.802 50.167,73.606 50.392,73.443 50.667 M259.583 50.778 C 258.585 50.923,256.838 52.142,256.834 52.696 C 256.834 52.759,256.737 52.909,256.619 53.030 C 256.501 53.151,256.227 53.539,256.011 53.893 C 255.794 54.247,255.439 54.729,255.221 54.964 C 255.003 55.198,254.781 55.565,254.728 55.779 C 254.674 55.992,254.575 56.167,254.506 56.167 C 254.438 56.167,253.867 56.935,253.238 57.875 C 252.609 58.815,252.054 59.621,252.006 59.667 C 251.782 59.877,251.167 60.836,251.167 60.975 C 251.167 61.061,251.054 61.174,250.917 61.227 C 250.779 61.280,250.667 61.399,250.667 61.492 C 250.667 61.634,249.335 63.560,248.419 64.742 C 248.280 64.921,248.167 65.147,248.167 65.244 C 248.167 65.341,247.998 65.610,247.792 65.841 C 247.227 66.475,246.667 67.298,246.667 67.493 C 246.667 67.589,246.603 67.667,246.524 67.667 C 246.446 67.667,245.866 68.435,245.236 69.375 C 244.605 70.315,244.032 71.108,243.961 71.139 C 243.891 71.169,243.833 71.289,243.833 71.405 C 243.833 71.520,243.694 71.741,243.524 71.895 C 243.106 72.273,242.905 72.007,242.753 70.875 C 242.688 70.394,242.567 69.958,242.484 69.907 C 242.401 69.856,242.333 69.687,242.332 69.532 C 242.332 69.377,242.227 69.050,242.099 68.805 C 241.972 68.561,241.816 68.055,241.752 67.681 C 241.689 67.307,241.569 66.959,241.485 66.908 C 241.402 66.856,241.333 66.574,241.332 66.282 C 241.332 65.989,241.222 65.541,241.089 65.285 C 240.955 65.029,240.797 64.560,240.738 64.243 C 240.678 63.926,240.570 63.667,240.497 63.667 C 240.424 63.667,240.312 63.273,240.247 62.792 C 240.182 62.310,240.073 61.842,240.003 61.750 C 239.934 61.658,239.823 61.284,239.756 60.917 C 239.690 60.551,239.587 60.213,239.526 60.167 C 239.370 60.047,238.878 58.536,238.740 57.750 C 238.676 57.383,238.567 57.008,238.498 56.917 C 238.428 56.825,238.317 56.487,238.250 56.167 C 238.183 55.846,238.070 55.508,238.000 55.417 C 237.930 55.325,237.817 54.987,237.750 54.667 C 237.683 54.346,237.572 54.008,237.503 53.917 C 237.435 53.825,237.338 53.433,237.289 53.045 C 237.192 52.280,236.660 51.642,235.688 51.125 C 235.108 50.817,224.167 50.660,224.167 50.960 C 224.167 51.030,223.998 51.162,223.792 51.252 C 223.585 51.343,223.343 51.585,223.252 51.792 C 223.162 51.998,223.030 52.167,222.960 52.167 C 222.770 52.167,222.807 53.797,223.000 53.917 C 223.092 53.973,223.167 54.146,223.168 54.302 C 223.168 54.457,223.269 54.775,223.391 55.010 C 223.514 55.244,223.663 55.741,223.722 56.113 C 223.782 56.485,223.943 57.005,224.081 57.270 C 224.219 57.534,224.332 57.881,224.332 58.042 C 224.333 58.202,224.405 58.333,224.492 58.333 C 224.580 58.333,224.702 58.615,224.764 58.958 C 224.826 59.302,224.934 59.658,225.003 59.750 C 225.072 59.842,225.182 60.235,225.246 60.625 C 225.310 61.015,225.431 61.333,225.515 61.333 C 225.598 61.333,225.667 61.465,225.668 61.625 C 225.668 61.785,225.774 62.118,225.902 62.364 C 226.100 62.744,226.375 63.649,226.407 64.028 C 226.412 64.089,226.473 64.195,226.542 64.264 C 226.610 64.333,226.667 64.508,226.668 64.653 C 226.668 64.798,226.774 65.118,226.902 65.364 C 227.030 65.610,227.186 66.041,227.248 66.322 C 227.309 66.603,227.429 66.833,227.513 66.833 C 227.598 66.833,227.667 67.077,227.668 67.375 C 227.668 67.673,227.781 68.131,227.918 68.394 C 228.055 68.657,228.167 68.957,228.168 69.061 C 228.168 69.165,228.278 69.459,228.411 69.715 C 228.545 69.971,228.703 70.440,228.762 70.757 C 228.822 71.074,228.937 71.333,229.019 71.333 C 229.100 71.333,229.167 71.540,229.168 71.792 C 229.168 72.044,229.278 72.459,229.411 72.715 C 229.545 72.971,229.703 73.440,229.762 73.757 C 229.822 74.074,229.934 74.333,230.011 74.333 C 230.088 74.333,230.197 74.615,230.252 74.958 C 230.307 75.302,230.417 75.705,230.498 75.854 C 230.578 76.004,230.695 76.397,230.757 76.729 C 230.819 77.062,230.937 77.333,231.019 77.333 C 231.100 77.333,231.167 77.465,231.168 77.625 C 231.168 77.785,231.270 78.111,231.394 78.349 C 231.617 78.775,231.916 79.966,231.861 80.208 C 231.846 80.277,231.908 80.333,232.000 80.333 C 232.092 80.333,232.167 80.465,232.168 80.625 C 232.168 80.785,232.274 81.118,232.402 81.364 C 232.530 81.610,232.686 82.041,232.748 82.322 C 232.809 82.603,232.929 82.833,233.013 82.833 C 233.098 82.833,233.167 83.077,233.168 83.375 C 233.168 83.673,233.268 84.106,233.389 84.338 C 233.863 85.247,233.834 85.476,233.112 86.531 C 232.729 87.088,232.342 87.666,232.250 87.814 C 232.158 87.962,231.990 88.143,231.875 88.217 C 231.760 88.290,231.667 88.424,231.667 88.515 C 231.667 88.606,231.589 88.771,231.495 88.882 C 231.401 88.993,230.839 89.758,230.247 90.583 C 229.656 91.408,229.111 92.158,229.037 92.250 C 228.962 92.342,228.718 92.679,228.493 93.000 C 228.267 93.321,228.042 93.621,227.991 93.667 C 227.941 93.712,227.723 94.039,227.508 94.393 C 227.293 94.747,226.941 95.227,226.725 95.459 C 226.510 95.692,226.333 95.965,226.333 96.066 C 226.332 96.167,226.107 96.490,225.833 96.783 C 225.558 97.076,225.333 97.360,225.333 97.414 C 225.333 97.545,224.681 98.446,224.204 98.972 C 223.996 99.202,223.783 99.560,223.731 99.767 C 223.679 99.973,223.531 100.183,223.402 100.233 C 223.272 100.282,223.167 100.438,223.167 100.578 C 223.167 100.718,223.092 100.833,223.000 100.833 C 222.651 100.833,222.823 102.235,223.235 102.750 L 223.635 103.250 229.626 103.250 C 234.598 103.250,235.699 103.208,236.100 103.002 C 236.736 102.676,237.327 102.135,237.330 101.875 C 237.332 101.760,237.393 101.667,237.466 101.667 C 237.540 101.667,237.783 101.369,238.008 101.004 C 238.233 100.640,238.473 100.340,238.542 100.338 C 238.610 100.335,238.667 100.255,238.667 100.160 C 238.667 99.971,239.235 99.128,239.726 98.590 C 239.897 98.403,240.110 98.044,240.201 97.792 C 240.292 97.540,240.425 97.333,240.496 97.333 C 240.568 97.333,240.913 96.883,241.264 96.333 C 241.614 95.783,241.961 95.333,242.034 95.333 C 242.107 95.333,242.167 95.232,242.167 95.109 C 242.167 94.986,242.317 94.749,242.500 94.583 C 242.683 94.417,242.833 94.213,242.833 94.129 C 242.833 94.045,242.927 93.878,243.042 93.759 C 243.156 93.639,243.362 93.373,243.500 93.168 C 243.637 92.963,243.881 92.623,244.042 92.413 C 244.202 92.203,244.333 91.982,244.333 91.923 C 244.333 91.864,244.558 91.576,244.833 91.283 C 245.107 90.990,245.332 90.656,245.333 90.542 C 245.333 90.427,245.400 90.333,245.481 90.333 C 245.562 90.333,245.672 90.202,245.725 90.042 C 245.827 89.736,247.209 87.765,247.792 87.095 C 247.979 86.879,248.187 86.533,248.252 86.326 C 248.318 86.118,248.537 85.791,248.737 85.599 C 248.938 85.407,249.282 84.950,249.500 84.583 C 249.719 84.217,249.996 83.857,250.116 83.783 C 250.235 83.710,250.333 83.541,250.333 83.408 C 250.333 83.275,250.407 83.167,250.497 83.167 C 250.587 83.167,250.706 82.985,250.762 82.762 C 250.818 82.540,250.969 82.317,251.098 82.267 C 251.228 82.218,251.333 82.069,251.333 81.936 C 251.333 81.803,251.390 81.669,251.458 81.639 C 251.607 81.573,252.333 80.557,252.333 80.414 C 252.333 80.360,252.558 80.076,252.833 79.783 C 253.107 79.490,253.332 79.188,253.333 79.113 C 253.333 79.038,253.427 78.878,253.542 78.759 C 253.656 78.639,253.862 78.373,254.000 78.167 C 254.137 77.962,254.606 77.312,255.042 76.723 C 255.477 76.134,255.833 75.580,255.833 75.492 C 255.833 75.405,255.901 75.333,255.984 75.333 C 256.066 75.333,256.210 75.127,256.303 74.875 C 256.396 74.623,256.739 74.123,257.067 73.764 C 257.394 73.405,257.707 72.970,257.761 72.797 C 257.816 72.624,258.080 72.259,258.347 71.986 C 258.615 71.712,258.833 71.397,258.833 71.284 C 258.833 71.172,259.002 70.890,259.208 70.659 C 259.675 70.135,260.333 69.213,260.333 69.083 C 260.333 68.982,260.356 68.952,261.167 68.000 C 261.440 67.679,261.711 67.271,261.770 67.093 C 261.828 66.915,262.091 66.540,262.354 66.260 C 262.617 65.979,262.832 65.656,262.833 65.542 C 262.833 65.427,262.908 65.333,263.000 65.333 C 263.092 65.333,263.167 65.232,263.167 65.109 C 263.167 64.986,263.317 64.749,263.500 64.583 C 263.683 64.417,263.833 64.189,263.833 64.075 C 263.833 63.962,263.946 63.826,264.083 63.773 C 264.221 63.720,264.333 63.562,264.333 63.422 C 264.333 63.282,264.400 63.167,264.482 63.167 C 264.564 63.167,264.678 62.979,264.735 62.750 C 264.793 62.521,264.907 62.333,264.989 62.333 C 265.071 62.333,265.359 61.974,265.629 61.535 C 265.900 61.096,266.225 60.625,266.352 60.489 C 266.760 60.052,267.333 59.186,267.333 59.007 C 267.333 58.911,267.402 58.833,267.486 58.833 C 267.571 58.833,267.809 58.552,268.017 58.208 C 268.224 57.865,268.718 57.151,269.114 56.623 C 269.509 56.095,269.833 55.589,269.833 55.498 C 269.833 55.407,269.908 55.333,270.000 55.333 C 270.092 55.333,270.167 55.230,270.167 55.104 C 270.167 54.977,270.285 54.776,270.429 54.657 C 271.477 53.787,271.636 51.915,270.722 51.217 L 270.110 50.750 265.097 50.728 C 262.339 50.716,259.858 50.738,259.583 50.778 M72.383 52.117 C 72.035 52.547,71.167 53.485,70.455 54.200 C 69.743 54.915,69.224 55.500,69.301 55.500 C 69.480 55.500,71.923 52.974,72.646 52.042 C 73.393 51.077,73.173 51.140,72.383 52.117 M67.804 56.555 C 66.432 57.621,66.172 57.888,67.167 57.207 C 67.945 56.674,69.146 55.677,69.000 55.684 C 68.954 55.687,68.416 56.078,67.804 56.555 M64.792 58.511 C 64.448 58.693,64.167 58.879,64.167 58.924 C 64.167 58.970,64.467 58.854,64.833 58.667 C 65.200 58.480,65.500 58.291,65.500 58.247 C 65.500 58.138,65.499 58.138,64.792 58.511 M196.366 60.966 C 196.476 61.076,196.712 61.167,196.890 61.167 C 197.284 61.167,198.667 61.838,198.667 62.030 C 198.667 62.105,198.760 62.168,198.875 62.170 C 199.493 62.180,201.833 65.130,201.833 65.898 C 201.833 66.101,201.927 66.360,202.042 66.475 C 202.321 66.754,202.331 70.952,202.054 71.516 C 201.946 71.737,201.811 72.198,201.754 72.542 C 201.698 72.885,201.587 73.167,201.509 73.167 C 201.430 73.167,201.285 73.373,201.185 73.625 C 201.012 74.064,200.676 74.657,200.500 74.833 C 200.454 74.879,200.117 75.291,199.750 75.748 C 198.864 76.853,198.733 76.975,197.621 77.736 C 197.096 78.095,196.667 78.451,196.667 78.528 C 196.667 78.604,196.548 78.667,196.404 78.667 C 196.259 78.667,195.595 78.929,194.928 79.250 C 194.134 79.632,193.473 79.833,193.014 79.833 C 192.629 79.833,192.354 79.899,192.404 79.979 C 192.453 80.059,191.789 80.138,190.928 80.154 C 190.067 80.170,189.319 80.112,189.265 80.025 C 189.212 79.938,188.909 79.867,188.594 79.867 C 188.092 79.867,186.567 79.269,186.333 78.981 C 186.287 78.924,186.080 78.825,185.872 78.760 C 185.347 78.596,183.358 76.573,183.233 76.075 C 183.177 75.851,183.070 75.667,182.995 75.667 C 182.921 75.667,182.808 75.423,182.744 75.125 C 182.680 74.827,182.557 74.495,182.470 74.387 C 182.383 74.278,182.268 73.770,182.215 73.257 C 182.162 72.743,182.055 72.284,181.976 72.235 C 181.791 72.121,181.791 71.379,181.976 71.265 C 182.055 71.216,182.159 70.736,182.208 70.198 C 182.257 69.661,182.374 69.077,182.467 68.902 C 182.561 68.727,182.803 68.171,183.004 67.667 C 183.205 67.162,183.474 66.632,183.602 66.487 C 183.729 66.342,183.833 66.144,183.833 66.046 C 183.833 65.949,183.946 65.826,184.083 65.773 C 184.221 65.720,184.334 65.581,184.335 65.464 C 184.339 65.069,187.225 62.442,187.877 62.238 C 188.082 62.174,188.287 62.076,188.333 62.019 C 188.535 61.770,189.994 61.167,190.393 61.167 C 190.635 61.167,190.833 61.096,190.833 61.010 C 190.833 60.645,196.003 60.603,196.366 60.966 M57.250 61.333 L 56.917 61.477 57.250 61.472 C 57.433 61.469,57.771 61.407,58.000 61.333 L 58.417 61.200 58.000 61.195 C 57.771 61.192,57.433 61.255,57.250 61.333 M54.250 61.833 L 53.583 61.953 54.250 61.957 C 54.617 61.959,55.142 61.903,55.417 61.833 L 55.917 61.706 55.417 61.710 C 55.142 61.712,54.617 61.768,54.250 61.833 M52.127 62.118 C 52.334 62.158,52.634 62.156,52.794 62.115 C 52.953 62.073,52.783 62.040,52.417 62.042 C 52.050 62.044,51.920 62.078,52.127 62.118 M35.969 62.506 C 35.631 62.684,35.299 62.920,35.231 63.030 C 35.163 63.140,35.365 63.079,35.679 62.894 C 35.993 62.710,36.438 62.475,36.667 62.374 C 36.896 62.272,36.971 62.187,36.833 62.185 C 36.696 62.183,36.307 62.327,35.969 62.506 " stroke="none" fill="#133b83" fill-rule="evenodd"></path><path id="path2" d="M41.237 33.235 C 39.480 33.785,38.858 34.844,38.341 38.167 C 37.984 40.455,37.888 41.056,37.008 46.500 C 36.449 49.959,35.355 56.895,34.737 60.899 C 34.512 62.356,34.283 63.725,34.229 63.941 C 34.084 64.521,34.237 64.425,34.896 63.528 C 35.913 62.143,35.613 62.185,45.000 62.110 C 54.718 62.032,55.826 61.918,60.083 60.555 C 65.388 58.857,70.914 54.790,73.396 50.758 C 73.568 50.479,73.762 50.212,73.828 50.167 C 74.055 50.008,75.791 46.913,76.258 45.833 C 76.516 45.237,76.786 44.670,76.859 44.572 C 77.054 44.309,78.487 39.940,78.677 39.031 C 78.767 38.601,78.949 37.672,79.082 36.965 C 79.215 36.259,79.371 35.490,79.430 35.256 C 79.598 34.587,76.873 33.683,73.363 33.245 C 70.687 32.912,42.299 32.903,41.237 33.235 M146.792 43.287 C 147.090 43.324,147.577 43.324,147.875 43.287 C 148.173 43.250,147.929 43.220,147.333 43.220 C 146.737 43.220,146.494 43.250,146.792 43.287 " stroke="none" fill="#142c6c" fill-rule="evenodd"></path><path id="path3" d="M79.612 35.482 C 79.550 35.790,79.508 36.201,79.518 36.396 C 79.528 36.591,79.603 36.412,79.684 36.000 C 79.765 35.587,79.807 35.176,79.778 35.086 C 79.748 34.996,79.674 35.174,79.612 35.482 M79.187 37.750 C 79.173 37.933,79.124 38.271,79.076 38.500 L 78.991 38.917 79.169 38.508 C 79.267 38.283,79.317 37.945,79.280 37.758 C 79.214 37.425,79.211 37.425,79.187 37.750 M76.694 45.424 C 76.414 46.037,76.468 46.167,76.770 45.610 C 76.911 45.350,76.995 45.106,76.957 45.068 C 76.919 45.030,76.800 45.190,76.694 45.424 M75.333 48.167 C 75.146 48.533,75.031 48.833,75.077 48.833 C 75.122 48.833,75.313 48.533,75.500 48.167 C 75.687 47.800,75.803 47.500,75.757 47.500 C 75.711 47.500,75.520 47.800,75.333 48.167 M71.906 53.042 L 71.417 53.583 71.958 53.094 C 72.256 52.825,72.500 52.581,72.500 52.552 C 72.500 52.423,72.362 52.537,71.906 53.042 M69.073 55.875 L 68.583 56.417 69.125 55.927 C 69.630 55.471,69.743 55.333,69.615 55.333 C 69.586 55.333,69.342 55.577,69.073 55.875 M61.250 60.414 C 60.700 60.631,60.325 60.815,60.417 60.821 C 60.632 60.836,62.115 60.274,62.270 60.119 C 62.439 59.950,62.367 59.971,61.250 60.414 M55.542 61.948 C 55.702 61.990,55.965 61.990,56.125 61.948 C 56.285 61.906,56.154 61.872,55.833 61.872 C 55.512 61.872,55.381 61.906,55.542 61.948 M53.083 62.176 C 52.662 62.257,52.908 62.271,53.750 62.215 C 54.483 62.166,55.115 62.098,55.153 62.063 C 55.268 61.958,53.796 62.038,53.083 62.176 M35.301 63.292 C 35.008 63.634,34.787 64.000,34.875 64.000 C 34.909 64.000,35.104 63.775,35.307 63.500 C 35.709 62.957,35.705 62.822,35.301 63.292 M33.583 68.000 C 33.519 68.379,33.502 68.724,33.545 68.767 C 33.587 68.810,33.672 68.532,33.733 68.150 C 33.794 67.768,33.812 67.423,33.772 67.383 C 33.732 67.343,33.647 67.621,33.583 68.000 M32.091 77.424 C 32.027 77.849,32.009 78.231,32.051 78.273 C 32.092 78.315,32.179 78.001,32.242 77.576 C 32.306 77.151,32.324 76.769,32.283 76.727 C 32.241 76.685,32.155 76.999,32.091 77.424 M30.605 86.682 C 30.547 86.971,30.509 87.405,30.519 87.646 C 30.530 87.886,30.606 87.678,30.688 87.183 C 30.849 86.217,30.781 85.806,30.605 86.682 " stroke="none" fill="#0875bc" fill-rule="evenodd"></path><path id="path4" d="M73.073 51.445 C 72.816 51.782,72.691 52.004,72.795 51.940 C 73.009 51.808,73.730 50.833,73.614 50.833 C 73.573 50.833,73.330 51.109,73.073 51.445 M70.494 54.458 L 69.583 55.417 70.542 54.506 C 71.432 53.659,71.576 53.500,71.453 53.500 C 71.427 53.500,70.995 53.931,70.494 54.458 M40.886 62.292 C 43.070 62.318,46.595 62.318,48.720 62.291 C 50.845 62.265,49.058 62.244,44.750 62.244 C 40.442 62.244,38.703 62.265,40.886 62.292 M33.771 66.423 C 33.713 66.572,33.674 66.857,33.684 67.055 C 33.695 67.284,33.751 67.203,33.838 66.834 C 33.983 66.215,33.944 65.972,33.771 66.423 M33.205 69.833 C 33.205 70.154,33.240 70.285,33.282 70.125 C 33.323 69.965,33.323 69.702,33.282 69.542 C 33.240 69.381,33.205 69.512,33.205 69.833 M31.773 78.535 C 31.717 78.745,31.679 79.142,31.689 79.417 C 31.701 79.762,31.749 79.660,31.844 79.089 C 31.990 78.218,31.947 77.886,31.773 78.535 M30.773 85.035 C 30.717 85.245,30.678 85.604,30.687 85.833 C 30.697 86.079,30.763 85.946,30.848 85.511 C 31.001 84.730,30.947 84.386,30.773 85.035 M30.279 87.982 C 30.217 88.290,30.175 88.701,30.185 88.896 C 30.195 89.091,30.270 88.912,30.351 88.500 C 30.432 88.087,30.474 87.676,30.444 87.586 C 30.415 87.496,30.340 87.674,30.279 87.982 " stroke="none" fill="#0c64ac" fill-rule="evenodd"></path></g></svg>